**ABCDEFGHIJKLMNOPQRSTUVWXYZabcdefghijklmnopqrstuvwxyz**************************
**PARASOLID !"#$%&'()*+,-./:;<=>?@[\]^_`{|}~0123456789**************************
**PART1;
MC=AMD64;
MC_MODEL=Intel64 Family 6 Model 158 Stepping 10, GenuineIntel;
MC_ID=unknown;
OS=Windows_NT;
OS_RELEASE=unknown;
FRU=Parasolid Version 31.0, build 290,  9- 1-2019;
APPL=SOLIDWORKS 2019-2019304;
SITE=;
USER=unknown;
FORMAT=text;
GUISE=transmit;
KEY=Camera;
FILE=Camera.x_t;
DATE=Sat May 16 15:48:45 2020;
**PART2;
SCH=SCH_3100290_31001;
USFLD_SIZE=0;
**PART3;
**END_OF_HEADER*****************************************************************
T51 : TRANSMIT FILE created by modeller version 310029023 SCH_3100290_31001_1300
6215 0 12 34 CCCCCCI4 mesh1006 0 I8 polyline1008 0 CCCCCCCDI5 owner1040 0 CCCCCC
I13 boundary_mesh1006 0 I17 boundary_polyline1008 0 CCCA16 index_map_offset0 0 1
 dA9 index_map82 0 A17 node_id_index_map82 0 A20 schema_embedding_map82 0 A5 chi
ld12 0 A14 lowest_node_id0 0 1 dA16 mesh_offset_data206 0 Z1 1969 2 3 0 0 0 0 0
 0 1e3 1e-8 0 4 0 1 0 1 1 5 6 7 8 0 0 9 10 11 0 0 0 0 0 0 0 81 255 2 2 1929 12 1
 13 0 0 0 0 14 70 11 CI9 list_type0 0 1 uI10 notransmit0 0 1 lCCCDCCDI12 finger_
index0 0 1 dI12 finger_block1012 0 CZ3 0 4 T1 0 0 8 20 1 15 15 13 255 5 99 0 1 0
 16 0 0 17 0 51 255 6 402 0 18 19 0 0 +.0765 .036 .0217 0 -1 0 .002 0 0 -1 31 25
5 7 422 0 20 21 0 0 +.0765 .034 .0217 0 1 0 0 0 1 .002 29 255 8 262 0 11 22 0 -.
0765 .036 -.0217 19 8 CCCCCCCA5 owner12 0 Z9 33 0 1 17 0 23 V0 16 255 10 264 0 ?
24 0 25 26 0 0 1 18 255 11 260 0 27 0 28 8 ?1 17 255 27 0 29 24 30 11 31 25 0 32
 +18 28 256 0 30 11 33 22 ?1 17 30 0 29 27 34 28 35 36 0 37 +18 33 252 0 34 28 3
8 39 ?1 29 22 258 0 28 39 8 .0765 .036 -.0217 29 39 254 0 33 40 22 .0765 .036 .0
217 29 40 251 0 38 41 39 -.0765 .036 .0217 18 38 249 0 42 33 43 40 ?1 29 41 242
 0 43 44 40 .0785 .002 .0217 18 43 240 0 45 38 46 41 ?1 29 44 238 0 46 47 41 .07
85 .002 -.0217 18 46 236 0 48 43 49 44 ?1 29 47 234 0 49 50 44 .0785 .034 .0217
 18 49 232 0 51 46 52 47 ?1 29 50 231 0 52 53 47 .0785 .034 -.0217 18 52 229 0 5
4 49 55 50 ?1 29 53 222 0 55 56 50 -.0765 .002 .0237 18 55 220 0 57 52 58 53 ?1
 29 56 218 0 58 59 53 .0765 .002 .0237 18 58 216 0 60 55 61 56 ?1 29 59 214 0 61
 62 56 -.0765 .034 .0237 18 61 212 0 63 58 64 59 ?1 29 62 211 0 64 65 59 .0765 .
034 .0237 18 64 209 0 66 61 67 62 ?1 29 65 202 0 67 68 62 -.0765 0 -.0217 18 67
 200 0 69 64 70 65 ?1 29 68 198 0 70 71 65 -.0765 0 .0217 18 70 196 0 72 67 73 6
8 ?1 29 71 194 0 73 74 68 .0765 0 .0217 18 73 192 0 75 70 76 71 ?1 29 74 191 0 7
6 77 71 .0765 0 -.0217 18 76 189 0 78 73 79 74 ?1 29 77 182 0 79 80 74 -.0765 .0
02 -.0237 18 79 180 0 81 76 82 77 ?1 29 80 178 0 82 83 77 .0765 .002 -.0237 18 8
2 176 0 84 79 85 80 ?1 29 83 174 0 85 86 80 .0765 .034 -.0237 18 85 172 0 87 82
 88 83 ?1 29 86 171 0 88 89 83 -.0765 .034 -.0237 18 88 169 0 90 85 91 86 ?1 29
 89 162 0 91 92 86 -.0785 .002 -.0217 18 91 160 0 93 88 94 89 ?1 29 92 158 0 94
 95 89 -.0785 .034 -.0217 18 94 156 0 96 91 97 92 ?1 29 95 154 0 97 98 92 -.0785
 .034 .0217 18 97 152 0 99 94 100 95 ?1 29 98 151 0 100 0 95 -.0785 .002 .0217 1
8 100 149 0 101 97 0 98 ?1 17 101 0 102 99 103 100 104 105 0 106 +15 255 102 150
 0 96 107 0 17 99 0 102 96 101 97 106 108 0 109 +17 103 0 102 101 96 91 110 111
 0 0 +17 104 0 112 113 114 91 101 105 0 103 -16 105 161 0 ?101 111 115 116 0 0 1
 17 106 0 117 118 109 100 99 108 0 119 -15 117 297 0 118 120 0 17 118 0 117 121
 106 55 119 122 0 123 -17 109 0 117 106 121 97 124 125 0 126 -16 108 153 0 ?99 1
15 20 127 0 0 1 17 119 0 128 129 123 100 118 122 0 114 +15 128 311 0 123 130 0 1
7 129 0 128 123 119 70 114 131 0 132 -17 123 0 128 119 129 55 133 134 0 0 +16 12
2 354 0 ?119 125 134 135 0 0 1 17 114 0 112 104 132 100 129 131 0 0 +15 112 319
 0 114 136 0 17 132 0 112 114 113 70 69 137 0 0 -16 131 365 0 ?114 138 139 140 0
 0 1 16 138 362 0 ?42 141 131 142 0 0 1 16 139 368 0 ?78 131 143 144 0 0 1 31 14
0 438 0 131 144 142 0 --.0765 .002 .0217 0 0 1 1 0 0 .002 31 144 439 0 139 145 1
40 0 -.0765 .002 -.0217 1 0 0 0 0 -1 .002 31 142 437 0 138 140 146 0 --.0765 .03
4 .0217 0 0 1 1 0 0 .002 31 146 436 0 141 142 147 0 -.0765 .034 -.0217 1 0 0 0 0
 -1 .002 16 141 359 0 ?148 149 138 146 0 0 1 31 147 435 0 149 146 150 0 +.0765 .
002 -.0217 0 -1 0 0 0 -1 .002 16 149 357 0 ?48 151 141 147 0 0 1 31 150 434 0 15
1 147 152 0 +.0765 .002 -.0217 0 0 -1 -1 0 0 .002 16 151 356 0 ?153 134 149 150
 0 0 1 31 152 433 0 134 150 135 0 +-.0765 .002 .0217 -1 0 0 0 0 1 .002 16 134 35
5 0 ?123 122 151 152 0 0 1 31 135 432 0 122 152 154 0 +-.0765 .002 .0217 0 -1 0
 0 0 -1 .002 31 154 431 0 125 135 155 0 +-.0765 .034 .0217 0 1 0 0 0 1 .002 16 1
25 353 0 ?124 156 122 154 0 0 1 31 155 430 0 156 154 157 0 +-.0765 .034 .0217 -1
 0 0 0 0 1 .002 16 156 352 0 ?158 159 125 155 0 0 1 31 157 429 0 159 155 160 0 +
.0765 .034 -.0217 0 0 -1 -1 0 0 .002 16 159 351 0 ?161 162 156 157 0 0 1 31 160
 428 0 162 157 163 0 +.0765 .034 -.0217 0 1 0 0 0 1 .002 16 162 350 0 ?164 165 1
59 160 0 0 1 31 163 427 0 165 160 166 0 -.0765 .002 .0217 0 0 1 1 0 0 .002 16 16
5 346 0 ?167 168 162 163 0 0 1 31 166 426 0 168 163 169 0 -.0765 .002 .0217 1 0
 0 0 0 -1 .002 16 168 343 0 ?60 170 165 166 0 0 1 31 169 425 0 170 166 171 0 -.0
765 .034 .0217 1 0 0 0 0 -1 .002 16 170 338 0 ?172 173 168 169 0 0 1 31 171 424
 0 173 169 21 0 -.0765 .034 .0217 0 0 1 1 0 0 .002 16 173 335 0 ?174 175 170 171
 0 0 1 31 21 423 0 175 171 7 0 +.0765 .002 .0217 0 -1 0 0 0 -1 .002 16 175 333 0
 ?176 20 173 21 0 0 1 17 176 0 177 178 179 58 180 175 0 181 +16 20 332 0 ?182 10
8 175 7 0 0 1 17 182 0 183 184 185 49 186 20 0 174 +15 183 287 0 185 187 0 17 18
4 0 183 185 182 33 174 173 0 35 -17 185 0 183 182 184 64 172 170 0 188 -17 186 0
 189 181 190 64 182 20 0 185 -17 174 0 191 192 35 49 184 173 0 0 +15 191 291 0 1
74 193 0 17 192 0 191 37 174 52 51 194 0 195 -17 35 0 191 174 37 33 30 36 0 0 -1
7 37 0 191 35 192 28 161 159 0 196 -16 36 257 0 ?30 25 197 198 0 0 1 16 25 261 0
 ?27 10 36 199 0 0 1 16 197 253 0 ?34 36 200 201 0 0 1 30 255 198 259 0 36 201 1
99 0 +.0765 .036 -.0237 0 0 -1 30 201 255 0 197 202 198 0 +.0785 .036 .0217 1 0
 0 30 199 263 0 25 198 26 0 +-.0785 .036 -.0217 -1 0 0 30 26 266 0 10 199 203 0
 +-.0765 .036 .0237 0 0 1 31 203 445 0 204 26 205 0 --.0765 .002 -.0217 0 -1 0 0
 0 -1 .002 16 204 377 0 ?93 206 207 203 0 0 1 31 205 444 0 206 203 208 0 --.0765
 .034 -.0217 0 1 0 0 0 1 .002 16 206 375 0 ?90 209 204 205 0 0 1 31 208 443 0 20
9 205 210 0 +-.0765 .002 -.0217 -1 0 0 0 0 1 .002 16 209 373 0 ?211 212 206 208
 0 0 1 31 210 442 0 212 208 213 0 +-.0765 .002 -.0217 0 0 -1 -1 0 0 .002 16 212
 372 0 ?214 215 209 210 0 0 1 31 213 441 0 215 210 145 0 +-.0765 .034 -.0217 0 0
 -1 -1 0 0 .002 16 215 371 0 ?216 143 212 213 0 0 1 31 145 440 0 143 213 144 0 +
-.0765 .034 -.0217 -1 0 0 0 0 1 .002 16 143 370 0 ?217 139 215 145 0 0 1 17 217
 0 218 219 216 88 220 143 0 221 +15 218 323 0 216 222 0 17 219 0 218 216 217 94
 90 206 0 110 -17 216 0 218 217 219 11 223 215 0 0 +17 220 0 224 31 221 11 217 1
43 0 216 -17 221 0 224 220 148 88 87 225 0 226 -15 224 315 0 148 227 0 17 148 0
 224 221 31 85 196 141 0 0 +17 87 0 228 84 226 85 221 225 0 229 +16 225 173 0 ?8
7 230 111 231 0 0 1 17 226 0 228 87 81 88 232 233 0 0 +15 228 170 0 81 234 0 17
 81 0 228 226 84 79 235 236 0 237 +17 232 0 238 93 90 79 226 233 0 239 -16 233 1
84 0 ?226 240 236 241 0 0 1 16 240 193 0 ?75 242 233 243 0 0 1 16 236 181 0 ?81
 233 230 244 0 0 1 30 241 186 0 233 244 243 0 --.0765 .036 -.0237 0 -1 0 30 244
 183 0 236 245 241 0 +-.0785 .002 -.0237 -1 0 0 30 243 195 0 240 241 246 0 -.076
5 0 0 0 0 -1 30 246 199 0 242 243 247 0 -0 0 .0217 1 0 0 16 242 197 0 ?72 137 24
0 246 0 0 1 30 247 203 0 137 246 248 0 --.0765 0 0 0 0 1 16 137 201 0 ?69 249 24
2 247 0 0 1 30 248 206 0 249 247 250 0 -0 0 -.0217 -1 0 0 16 249 204 0 ?251 252
 137 248 0 0 1 30 250 215 0 252 248 253 0 --.0785 .034 .0237 1 0 0 16 252 213 0
 ?63 254 249 250 0 0 1 30 253 219 0 254 250 255 0 -.0765 .036 .0237 0 -1 0 16 25
4 217 0 ?66 256 252 253 0 0 1 30 255 223 0 256 253 257 0 +-.0765 .036 .0237 0 -1
 0 16 256 221 0 ?57 258 254 255 0 0 1 30 257 226 0 258 255 259 0 +-.0785 .002 .0
237 1 0 0 16 258 224 0 ?260 194 256 257 0 0 1 30 259 235 0 194 257 261 0 -.0785
 .034 .0237 0 0 -1 16 194 233 0 ?51 262 258 259 0 0 1 30 261 239 0 262 259 263 0
 -.0785 .036 -.0217 0 -1 0 16 262 237 0 ?54 264 194 261 0 0 1 30 263 243 0 264 2
61 202 0 +.0785 .036 .0217 0 -1 0 16 264 241 0 ?45 200 262 263 0 0 1 30 202 246
 0 200 263 201 0 +.0785 .002 -.0237 0 0 -1 16 200 244 0 ?265 197 264 202 0 0 1 1
7 265 0 266 54 45 46 267 200 0 0 +15 266 230 0 45 16 0 17 54 0 266 51 265 52 268
 262 0 192 +17 45 0 266 265 51 43 190 264 0 180 +17 267 0 269 167 270 43 265 200
 0 0 -15 269 301 0 167 271 0 17 167 0 269 272 267 73 179 165 0 178 +17 270 0 269
 267 272 46 153 151 0 268 -17 272 0 269 270 167 76 75 240 0 251 -17 153 0 273 27
4 48 76 270 151 0 272 +17 268 0 275 276 195 46 54 262 0 265 -15 275 305 0 195 27
7 0 17 276 0 275 229 268 82 48 149 0 274 -17 195 0 275 268 229 52 164 162 0 161
 -17 229 0 275 195 276 85 84 230 0 164 -17 164 0 278 196 161 85 195 162 0 148 +1
7 161 0 278 164 196 52 37 159 0 0 +15 278 307 0 161 279 0 17 196 0 278 161 164 2
8 148 141 0 31 -17 31 0 224 148 220 28 27 25 0 0 -14 255 279 306 280 ?281 277 27
8 5 282 +0 0 281 277 23 81 1 280 1930 283 279 284 0 0 285 286 14 281 308 285 ?13
0 279 287 5 288 +0 0 130 279 23 14 277 304 289 ?279 271 275 5 290 +0 0 279 271 2
3 53 255 282 411 0 279 288 290 0 +.0765 .034 -.0217 .002 0 0 1 1 0 0 13 23 34 0
 0 0 0 0 0 9 16 14 16 90 291 ?234 0 266 5 292 -0 0 234 0 23 81 1 291 1933 283 16
 293 0 289 294 295 14 234 88 294 ?107 16 228 5 296 -0 0 107 16 23 50 255 292 94
 0 16 296 297 0 +.0785 .036 -.0237 -1 0 0 0 0 1 50 296 93 0 234 298 292 0 +-.078
5 .036 -.0237 0 0 1 1 0 0 51 297 421 0 299 292 300 0 +-.0765 .036 -.0217 0 -1 0
 .002 0 0 -1 14 299 326 301 ?302 303 238 5 297 +0 0 302 303 23 53 300 420 0 303
 297 304 0 +-.0765 .002 -.0217 .002 0 0 1 1 0 0 14 303 324 305 ?299 222 306 5 30
0 +0 0 299 222 23 53 304 419 0 222 300 307 0 +-.0765 .034 -.0217 .002 0 0 1 1 0
 0 14 222 322 308 ?303 309 218 5 304 +0 0 303 309 23 51 307 418 0 309 304 310 0
 +-.0785 .002 -.0217 -1 0 0 .002 0 0 1 14 309 320 311 ?222 136 312 5 307 +0 0 22
2 136 23 51 310 417 0 136 307 313 0 +-.0765 .002 -.0237 0 0 1 .002 1 0 0 14 136
 318 314 ?309 315 112 5 310 +0 0 309 315 23 51 313 416 0 315 310 316 0 +-.0765 .
034 0 0 0 -1 .002 -1 0 0 14 315 316 317 ?136 227 318 5 313 +0 0 136 227 23 51 31
6 415 0 227 313 319 0 +0 .034 -.0217 1 0 0 .002 0 0 -1 14 227 314 320 ?315 321 2
24 5 316 +0 0 315 321 23 53 319 414 0 321 316 322 0 +.0765 .002 -.0217 .002 0 0
 1 1 0 0 14 321 312 323 ?227 130 273 5 319 +0 0 227 130 23 53 322 413 0 130 319
 288 0 +-.0765 .002 .0217 .002 0 0 1 1 0 0 14 130 310 324 ?321 281 128 5 322 +0
 0 321 281 23 53 288 412 0 281 322 282 0 +-.0765 .034 .0217 .002 0 0 1 1 0 0 81
 1 324 1943 283 130 325 0 323 326 327 80 255 1 283 328 329 9000 1 1 1 1 1 1 1 1
 0 FFFFTFTFFFFFFF1 81 1 325 1825 330 130 0 324 331 332 333 81 1 323 1942 283 321
 332 0 320 324 334 81 1 326 1944 283 302 335 0 324 336 337 82 255 1 327 -8007187
39 14 302 647 326 ?338 299 339 5 340 -0 0 338 299 23 81 1 335 1834 330 302 0 326
 341 342 343 81 1 336 1945 283 338 342 0 326 344 345 82 1 337 712441973 14 338 6
52 336 ?346 302 347 5 348 +0 0 346 302 23 81 1 342 1835 330 338 0 336 335 349 35
0 81 1 344 1946 283 346 349 0 336 351 352 82 1 345 710475893 14 346 622 344 ?353
 338 354 5 355 -0 0 353 338 23 81 1 349 1836 330 346 0 344 342 356 357 81 1 351
 1947 283 353 356 0 344 358 359 82 1 352 716439669 14 353 627 351 ?360 346 361 5
 362 +0 0 360 346 23 81 1 356 1837 330 353 0 351 349 363 364 81 1 358 1948 283 3
60 363 0 351 365 366 82 1 359 714473589 14 360 635 358 ?367 353 368 5 369 +0 0 3
67 353 23 81 1 363 1838 330 360 0 358 356 370 371 81 1 365 1949 283 367 370 0 35
8 372 373 82 1 366 724303989 14 367 591 365 ?374 360 375 5 376 -0 0 374 360 23 8
1 1 370 1839 330 367 0 365 363 377 378 81 1 372 1950 283 374 377 0 365 379 380 8
2 1 373 720371829 14 374 596 372 ?381 367 382 5 383 -0 0 381 367 23 81 1 377 184
0 330 374 0 372 370 384 385 81 1 379 1951 283 381 384 0 372 386 387 82 1 380 718
405749 14 381 604 379 ?388 374 389 5 390 +0 0 388 374 23 81 1 384 1841 330 381 0
 379 377 391 392 81 1 386 1952 283 388 391 0 379 393 394 82 1 387 728236149 14 3
88 558 386 ?395 381 396 5 397 -398 395 395 381 23 81 1 391 1842 330 388 0 386 38
4 399 400 81 1 393 1953 283 395 399 0 386 401 402 82 1 394 734527619 14 395 570
 393 ?403 388 404 5 397 -388 398 403 388 23 81 1 399 1843 330 395 0 393 391 405
 406 81 1 401 1954 283 403 405 0 393 407 408 82 1 402 735576197 14 403 743 401 ?
409 395 410 5 411 -0 0 409 395 23 81 1 405 1844 330 403 0 401 399 412 413 81 1 4
07 1955 283 409 412 0 401 414 415 82 1 408 682754179 14 409 747 407 ?416 403 417
 5 418 -0 0 416 403 23 81 1 412 1845 330 409 0 407 405 419 420 81 1 414 1956 283
 416 419 0 407 421 422 82 1 415 682164355 14 416 778 414 ?423 409 424 5 425 -0 0
 423 409 23 81 1 419 1846 330 416 0 414 412 426 427 81 1 421 1957 283 423 426 0
 414 428 429 82 1 422 967704709 14 423 782 421 ?0 416 430 5 431 -0 0 0 416 23 81
 1 426 1847 330 423 0 421 419 0 432 81 1 428 1958 283 398 433 0 421 434 435 82 1
 429 967114885 14 398 84 428 ?436 107 437 5 397 -395 388 436 107 23 81 1 433 181
1 330 398 0 428 438 439 440 81 1 434 1959 283 436 439 0 428 441 442 82 1 435 -10
82392459 14 436 1 434 ?443 398 29 5 444 +0 0 443 398 23 81 1 439 1812 330 436 0
 434 433 445 446 81 1 441 1960 283 443 445 0 434 447 448 82 1 442 -1088946067 14
 443 48 441 ?18 436 449 5 450 -0 0 18 436 23 81 1 445 1813 330 443 0 441 439 451
 452 81 1 447 1961 283 18 451 0 441 453 454 82 1 448 -1083309971 14 18 282 447 ?
187 443 189 5 6 +0 0 187 443 23 81 1 451 1814 330 18 0 447 445 455 456 81 1 453
 1962 283 187 455 0 447 457 458 82 1 454 -791019411 14 187 286 453 ?459 18 183 5
 19 +0 0 459 18 23 81 1 455 1815 330 187 0 453 451 460 461 81 1 457 1963 283 459
 460 0 453 462 463 82 1 458 -791805843 14 459 288 457 ?193 187 177 5 464 +0 0 19
3 187 23 81 1 460 1816 330 459 0 457 455 465 466 81 1 462 1964 283 193 465 0 457
 467 468 82 1 463 -792199059 14 193 290 462 ?469 459 191 5 470 +0 0 469 459 23 8
1 1 465 1817 330 193 0 462 460 471 472 81 1 467 1965 283 469 471 0 462 473 474 8
2 1 468 -793313171 14 469 294 467 ?120 193 475 5 476 +0 0 120 193 23 81 1 471 18
18 330 469 0 467 465 477 478 81 1 473 1966 283 120 477 0 467 479 480 82 1 474 -7
94754963 14 120 296 473 ?481 469 117 5 482 +0 0 481 469 23 81 1 477 1819 330 120
 0 473 471 483 484 81 1 479 1967 283 481 483 0 473 485 486 82 1 480 -795148179 1
4 481 298 479 ?271 120 487 5 488 +0 0 271 120 23 81 1 483 1820 330 481 0 479 477
 489 490 81 1 485 1968 283 271 489 0 479 491 492 82 1 486 -796262291 14 271 300
 485 ?277 481 269 5 493 +0 0 277 481 23 81 1 489 1821 330 271 0 485 483 494 495
 81 1 491 1969 283 107 438 0 485 0 496 82 1 492 -797376403 14 107 86 491 ?398 23
4 102 5 298 -0 0 398 234 23 81 1 438 1810 330 107 0 491 497 433 498 82 1 496 -10
82130323 80 1 330 0 499 8001 0 0 0 0 3 5 0 0 0 FFFFTFTFFFFFFF2 81 1 497 1809 330
 234 0 294 293 438 500 83 255 3 498 1 .8 .2705882352941175 81 1 294 1934 283 234
 497 0 291 301 501 81 1 293 1808 330 16 0 291 0 497 502 83 3 500 1 .8 .270588235
2941175 83 3 502 1 .8 .2705882352941175 81 1 301 1935 283 299 341 0 294 305 503
 82 1 501 -1081868179 81 1 341 1833 330 299 0 301 504 335 505 81 1 305 1936 283
 303 504 0 301 308 506 82 1 503 -809303955 81 1 504 1832 330 303 0 305 507 341 5
08 81 1 308 1937 283 222 507 0 305 311 509 82 1 506 -807731091 81 1 507 1831 330
 222 0 308 510 504 511 81 1 311 1938 283 309 510 0 308 314 512 82 1 509 -8068791
23 81 1 510 1830 330 309 0 311 513 507 514 81 1 314 1939 283 136 513 0 311 317 5
15 82 1 512 -806027155 81 1 513 1829 330 136 0 314 516 510 517 81 1 317 1940 283
 315 516 0 314 320 518 82 1 515 -804847507 81 1 516 1828 330 315 0 317 519 513 5
20 81 1 320 1941 283 227 519 0 317 323 521 82 1 518 -803733395 81 1 519 1827 330
 227 0 320 332 516 522 82 1 521 -802619283 81 1 332 1826 330 321 0 323 325 519 5
23 83 3 522 1 .8 .2705882352941175 83 3 523 1 .8 .2705882352941175 83 3 520 1 .8
 .2705882352941175 83 3 517 1 .8 .2705882352941175 83 3 514 1 .8 .27058823529411
75 83 3 511 1 .8 .2705882352941175 83 3 508 1 .8 .2705882352941175 83 3 505 1 .8
 .2705882352941175 79 255 15 499 SDL/TYSA_COLOUR50 298 92 0 107 397 296 0 +-.078
5 .036 -.0237 1 0 0 0 0 -1 50 397 91 0 398 450 298 0 +-.0785 .036 .0237 0 0 -1 -
1 0 0 50 450 70 0 443 444 397 0 +0 0 0 0 1 0 0 0 1 50 444 3 0 436 340 450 0 +0 .
036 0 0 1 0 0 0 1 51 340 664 0 302 348 444 0 +857252759403146e-33 .029 .0037 0 0
 1 .002 1 0 0 50 348 666 0 338 376 340 0 +857252759403146e-33 .029 .0037 0 0 1 1
 0 0 51 376 667 0 367 383 348 0 +.0585 .018 .0037 0 0 1 .012 1 0 0 50 383 669 0
 374 390 376 0 +.0585 .018 .0037 0 0 -1 -1 0 0 51 390 670 0 381 355 383 0 +.0585
 .018 .0037 0 0 1 .009 1 0 0 51 355 671 0 346 362 390 0 +-.0585 .018 .0037 0 0 1
 .012 1 0 0 50 362 673 0 353 369 355 0 +-.0585 .018 .0037 0 0 1 1 0 0 51 369 674
 0 360 411 362 0 +-.0585 .018 .0037 0 0 1 .009 1 0 0 51 411 753 0 403 418 369 0
 +-.0585 .018 .02323085886149555 0 1174854740333112e-31 1 .008 0 -1 117485474033
3112e-31 53 418 754 0 409 425 411 0 --.0585 .018 -.0063 .0297 0 1174854740333112
e-31 1 0 1 -1174854740333112e-31 51 425 788 0 416 431 418 0 +.0585 .018 .0232308
5886149555 0 1174854740333112e-31 1 .008 0 -1 1174854740333112e-31 53 431 789 0
 423 0 425 0 -.0585 .018 -.0063 .0297 0 1174854740333112e-31 1 0 1 -117485474033
3112e-31 81 1 494 1822 330 277 0 289 489 284 524 83 3 495 1 .8 .2705882352941175
 81 1 289 1932 283 277 494 0 285 291 525 81 1 284 1823 330 279 0 280 494 331 526
 83 3 524 1 .8 .2705882352941175 81 1 331 1824 330 281 0 285 284 325 527 83 3 52
6 1 .8 .2705882352941175 81 1 285 1931 283 281 331 0 280 289 528 83 3 527 1 .8 .
2705882352941175 82 1 528 -799866771 82 1 525 -798162835 51 493 409 0 271 290 48
8 0 +.0765 .002 -.0237 0 0 -1 .002 -1 0 0 51 290 410 0 277 282 493 0 +.0765 .036
 -.0217 0 -1 0 .002 0 0 -1 51 488 408 0 481 493 482 0 +-.0785 .002 .0217 1 0 0 .
002 0 0 -1 51 482 407 0 120 488 476 0 +-.0765 .036 .0217 0 -1 0 .002 0 0 -1 51 4
76 406 0 469 482 470 0 +0 .034 .0217 -1 0 0 .002 0 0 1 51 470 405 0 193 476 464
 0 +.0765 .034 0 0 0 1 .002 1 0 0 53 464 404 0 459 470 19 0 +.0765 .002 .0217 .0
02 0 0 1 1 0 0 53 19 403 0 187 464 6 0 +.0765 .034 .0217 .002 0 0 1 1 0 0 83 3 4
90 1 .8 .2705882352941175 15 487 299 0 60 481 0 17 60 0 487 529 530 58 178 168 0
 176 +17 529 0 487 133 60 55 260 258 0 118 -17 530 0 487 60 133 73 72 242 0 0 -1
7 178 0 177 179 176 73 60 168 0 530 -15 177 289 0 179 459 0 17 179 0 177 176 178
 43 167 165 0 267 -17 133 0 487 530 529 70 123 134 0 129 -17 72 0 449 69 75 70 5
30 242 0 133 +15 449 190 0 69 443 0 17 69 0 449 251 72 67 132 137 0 531 +17 75 0
 449 72 251 73 272 240 0 167 +17 251 0 449 75 69 76 531 249 0 0 +17 531 0 312 23
7 78 67 251 249 0 113 -15 312 321 0 78 309 0 17 237 0 312 235 531 79 211 209 0 2
32 -17 78 0 312 531 235 76 274 139 0 153 +17 113 0 112 132 104 67 214 212 0 211
 -17 214 0 306 239 211 91 113 212 0 104 +17 211 0 306 214 239 67 237 209 0 0 +15
 306 325 0 211 303 0 17 239 0 306 211 214 79 93 204 0 0 -17 93 0 238 110 232 91
 239 204 0 214 +15 238 327 0 90 299 0 17 110 0 238 90 93 94 103 111 0 0 -17 90 0
 238 232 110 88 219 206 0 217 +16 111 164 0 ?103 225 105 532 0 0 1 30 532 166 0
 111 116 231 0 +-.0785 .036 -.0217 0 -1 0 30 116 163 0 105 533 532 0 +-.0785 .00
2 -.0237 0 0 1 30 231 175 0 225 532 245 0 -.0785 .034 -.0237 -1 0 0 30 245 179 0
 230 231 244 0 +.0765 .036 -.0237 0 -1 0 16 230 177 0 ?84 236 225 245 0 0 1 17 8
4 0 228 81 87 82 229 230 0 276 +30 533 159 0 115 127 116 0 --.0785 .034 -.0237 0
 0 1 16 115 157 0 ?96 105 108 533 0 0 1 30 127 155 0 108 534 533 0 --.0785 .036
 .0217 0 -1 0 31 534 675 0 535 536 127 0 +857252759403146e-33 .029 .0237 0 0 1 1
 0 0 .002 16 535 644 0 ?537 207 538 534 0 0 1 31 536 676 0 207 539 534 0 +857252
759403146e-33 .029 .0037 0 0 1 1 0 0 .002 16 207 641 0 ?540 204 535 536 0 0 1 31
 539 677 0 541 542 536 0 +.0585 .018 .0237 0 0 1 -1 0 0 .012 16 541 585 0 ?543 5
44 545 539 0 0 1 31 542 678 0 544 546 539 0 +.0585 .018 .0037 0 0 1 -1 0 0 .012
 16 544 579 0 ?547 548 541 542 0 0 1 31 546 679 0 549 550 542 0 +.0585 .018 .023
7 0 0 1 -1 0 0 .009 16 549 588 0 ?551 545 552 546 0 0 1 31 550 680 0 545 553 546
 0 +.0585 .018 .0037 0 0 1 -1 0 0 .009 16 545 582 0 ?554 541 549 550 0 0 1 31 55
3 681 0 555 556 550 0 +-.0585 .018 .0237 0 0 1 1 0 0 .012 16 555 616 0 ?557 538
 558 553 0 0 1 31 556 682 0 538 559 553 0 +-.0585 .018 .0037 0 0 1 1 0 0 .012 16
 538 610 0 ?560 535 555 556 0 0 1 31 559 683 0 548 561 556 0 +-.0585 .018 .0237
 0 0 1 1 0 0 .009 16 548 619 0 ?562 558 544 559 0 0 1 31 561 684 0 558 563 559 0
 +-.0585 .018 .0037 0 0 1 1 0 0 .009 16 558 613 0 ?564 555 548 561 0 0 1 31 563
 755 0 552 565 561 0 +-.0585 .018 .0237 0 1174854740333112e-31 1 0 -1 1174854740
333112e-31 .008 16 552 738 0 ?566 549 567 563 0 0 1 31 565 756 0 567 568 563 0 +
-.0585 .018 .02230227263697765 0 1174854740333112e-31 1 0 -1 1174854740333112e-3
1 .008 16 567 739 0 ?569 552 570 565 0 0 1 31 568 790 0 570 571 565 0 +.0585 .01
8 .0237 0 -1174854740333112e-31 -1 0 -1 1174854740333112e-31 .008 16 570 773 0 ?
572 567 573 568 0 0 1 31 571 791 0 573 0 568 0 +.0585 .018 .02230227263697765 0
 -1174854740333112e-31 -1 0 -1 1174854740333112e-31 .008 16 573 774 0 ?574 570 0
 571 0 0 1 17 574 0 424 574 574 0 575 573 0 0 +15 424 780 0 574 416 576 17 575 0
 430 575 575 0 574 573 0 0 -15 430 784 0 575 423 0 15 576 781 0 577 416 0 17 577
 0 576 577 577 0 572 570 0 0 -17 572 0 404 572 572 0 577 570 0 0 +15 404 766 0 5
72 395 578 15 578 568 0 551 395 0 17 551 0 578 551 551 0 579 549 0 0 +17 579 0 5
80 579 579 0 551 549 0 0 -15 580 608 0 579 381 0 17 569 0 417 569 569 0 581 567
 0 0 +15 417 749 0 569 409 0 17 581 0 410 581 581 0 569 567 0 0 -15 410 745 0 58
1 403 582 15 582 746 0 566 403 0 17 566 0 582 566 566 0 583 552 0 0 +17 583 0 39
6 583 583 0 566 552 0 0 -15 396 731 0 583 388 584 15 584 556 0 562 388 0 17 562
 0 584 562 562 0 585 548 0 0 +17 585 0 586 585 585 0 562 548 0 0 -15 586 639 0 5
85 360 0 17 564 0 368 564 564 0 587 558 0 0 +15 368 638 0 564 360 586 17 587 0 3
61 587 587 0 564 558 0 0 -15 361 629 0 587 353 588 15 588 630 0 560 353 0 17 560
 0 588 560 560 0 589 538 0 0 +17 589 0 354 589 589 0 560 538 0 0 -15 354 625 0 5
89 346 590 15 590 626 0 557 346 0 17 557 0 590 557 557 0 591 555 0 0 +17 591 0 5
92 591 591 0 557 555 0 0 -15 592 561 0 591 398 593 15 593 549 0 594 398 595 17 5
94 0 593 594 594 0 537 535 0 0 -15 595 210 0 57 398 0 17 57 0 595 260 63 55 121
 256 0 529 +17 260 0 595 66 57 58 529 258 0 0 +17 63 0 595 57 66 61 188 252 0 12
1 +17 121 0 117 109 118 61 57 256 0 596 -17 596 0 475 188 597 61 158 156 0 124 -
15 475 295 0 172 469 0 17 188 0 475 172 596 64 63 252 0 0 -17 597 0 475 596 172
 38 34 197 0 24 -17 158 0 287 126 124 38 596 156 0 597 +17 124 0 287 158 126 61
 109 125 0 0 +15 287 309 0 124 281 0 17 126 0 287 124 158 97 42 138 0 598 -17 42
 0 318 32 598 38 126 138 0 158 +17 598 0 318 42 223 97 96 115 0 0 -15 318 317 0
 42 315 0 17 223 0 318 598 32 94 216 215 0 219 -17 96 0 102 103 99 94 598 115 0
 223 +17 32 0 318 223 42 11 24 10 0 220 -17 24 0 29 34 27 38 32 10 0 0 +15 29 25
0 0 27 436 0 17 34 0 29 30 24 33 597 197 0 172 +17 172 0 475 597 188 33 185 170
 0 184 +17 66 0 595 63 260 64 181 254 0 186 +17 181 0 189 180 186 58 66 254 0 26
0 -15 189 283 0 186 18 0 17 180 0 189 190 181 43 176 175 0 179 -17 190 0 189 186
 180 49 45 264 0 182 -17 537 0 599 537 537 0 594 535 0 0 +15 599 651 0 537 302 0
 17 554 0 389 554 554 0 600 545 0 0 +15 389 607 0 554 381 580 17 600 0 382 600 6
00 0 554 545 0 0 -15 382 598 0 600 374 601 15 601 599 0 547 374 0 17 547 0 601 5
47 547 0 602 544 0 0 +17 602 0 375 602 602 0 547 544 0 0 -15 375 594 0 602 367 6
03 15 603 595 0 543 367 0 17 543 0 603 543 543 0 604 541 0 0 +17 604 0 437 604 6
04 0 543 541 0 0 -15 437 573 0 604 398 592 17 540 0 347 540 540 0 605 207 0 0 +1
5 347 654 0 540 338 0 17 605 0 339 605 605 0 540 207 0 0 -15 339 650 0 605 302 5
99 17 235 0 312 78 237 82 81 236 0 0 -17 274 0 273 48 153 82 78 139 0 235 -15 27
3 313 0 48 321 0 17 48 0 273 153 274 46 276 149 0 270 +83 3 484 1 .8 .2705882352
941175 83 3 478 1 .8 .2705882352941175 83 3 472 1 .8 .2705882352941175 83 3 466
 1 .8 .2705882352941175 83 3 461 1 .8 .2705882352941175 83 3 456 1 .8 .270588235
2941175 83 3 452 1 .8 .2705882352941175 83 3 446 1 .8 .2705882352941175 83 3 440
 1 .8 .2705882352941175 83 3 432 .501960784313726 .501960784313726 .501960784313
726 83 3 427 0 0 0 83 3 420 .501960784313726 .501960784313726 .501960784313726 8
3 3 413 0 0 0 83 3 406 0 0 0 83 3 400 0 0 0 83 3 392 0 0 0 83 3 385 1 .8 .270588
2352941175 83 3 378 1 .8 .2705882352941175 83 3 371 0 0 0 83 3 364 1 .8 .2705882
352941175 83 3 357 1 .8 .2705882352941175 83 3 350 1 .8 .2705882352941175 83 3 3
43 0 0 0 82 1 334 -801505171 83 3 333 1 .8 .2705882352941175 79 14 329 SWEntUnch
anged82 1 295 -1081606035 82 1 286 -799014803 17 51 0 266 45 54 49 192 194 0 190
 +19 17 100 0 1 0 9 5 S0 74 4 CI16 index_map_offset0 0 1 dCCZ20 15 8 0 0 606 607
 491 608 609 13 426 2 0 0 0 0 0 0 0 0 0 0 0 0 81 2 606 124 610 1 0 607 0 0 0 611
 81 2 607 128 612 1 606 608 0 0 0 613 81 1 608 799 614 1 607 609 0 0 615 81 2 60
9 849 616 1 608 13 0 0 0 617 81 2 13 1806 618 1 609 2 0 0 0 0 80 2 618 619 620 9
000 0 0 0 0 3 5 0 0 0 FFTFFFFFFFFFFF9 1 79 16 620 BODY_RECIPE_200180 2 616 621 6
22 9000 0 0 0 0 3 5 0 0 0 FFTFFFFFFFFFFF9 1 82 1 617 1 79 24 622 BODY_IN_LIGHTWE
IGHT_PERM80 1 614 623 624 9000 1 1 1 1 1 1 1 1 0 FFTFFFFFFFFFFF1 82 1 615 835350
 79 10 624 BODY_MATCH80 2 612 625 626 9000 0 0 0 0 3 5 0 0 0 FFTFFFFFFFFFFF9 1 8
2 1 613 63 79 30 626 LAST_BODY_MODIFYING_FEATURE_ID80 2 610 627 628 9000 0 0 0 0
 3 5 0 0 0 FFTFFFFFFFFFFF9 1 82 1 611 121 79 19 628 ENT_TIME_STAMP_200180 2 12 6
29 630 9000 0 0 0 0 3 5 0 0 0 FFTFFFFFFFFFFF9 1 82 1 14 104 79 12 630 ATOM_ID_20
011 0 
