**ABCDEFGHIJKLMNOPQRSTUVWXYZabcdefghijklmnopqrstuvwxyz**************************
**PARASOLID !"#$%&'()*+,-./:;<=>?@[\]^_`{|}~0123456789**************************
**PART1;
MC=AMD64;
MC_MODEL=Intel64 Family 6 Model 158 Stepping 10, GenuineIntel;
MC_ID=unknown;
OS=Windows_NT;
OS_RELEASE=unknown;
FRU=Parasolid Version 31.0, build 290,  9- 1-2019;
APPL=SOLIDWORKS 2019-2019304;
SITE=;
USER=unknown;
FORMAT=text;
GUISE=transmit;
KEY=Double platform;
FILE=Double platform.x_t;
DATE=Sat May 16 15:49:12 2020;
**PART2;
SCH=SCH_3100290_31001;
USFLD_SIZE=0;
**PART3;
**END_OF_HEADER*****************************************************************
T51 : TRANSMIT FILE created by modeller version 310029023 SCH_3100290_31001_1300
6215 0 12 34 CCCCCCI4 mesh1006 0 I8 polyline1008 0 CCCCCCCDI5 owner1040 0 CCCCCC
I13 boundary_mesh1006 0 I17 boundary_polyline1008 0 CCCA16 index_map_offset0 0 1
 dA9 index_map82 0 A17 node_id_index_map82 0 A20 schema_embedding_map82 0 A5 chi
ld12 0 A14 lowest_node_id0 0 1 dA16 mesh_offset_data206 0 Z1 2124 2 3 0 0 0 0 0
 0 1e3 1e-8 0 4 0 1 0 1 1 5 6 7 8 0 0 9 10 11 0 0 0 0 0 0 0 81 255 2 2 2086 12 1
 13 0 0 0 0 14 70 11 CI9 list_type0 0 1 uI10 notransmit0 0 1 lCCCDCCDI12 finger_
index0 0 1 dI12 finger_block1012 0 CZ3 0 4 T1 0 0 9 20 1 15 15 13 255 5 99 0 1 0
 16 0 0 17 0 50 255 6 1806 0 18 19 0 0 +-.1285 -.02 0 .707106781186567 -.7071067
81186528 0 0 0 -1 30 255 7 1818 0 20 21 0 0 +-.12825 -.01975 .018569903879613 .7
07106781186528 .707106781186567 -962952239269227e-29 29 255 8 1463 0 11 22 0 -.2
88 -.02 -.080930096120387 19 8 CCCCCCCA5 owner12 0 Z9 33 0 1 17 0 23 V0 16 255 1
0 1231 0 ?24 0 25 26 0 0 1 18 255 11 1461 0 27 0 28 8 ?1 17 255 27 0 29 30 31 11
 32 33 0 34 -18 28 1361 0 35 11 36 22 ?1 17 35 0 37 38 39 28 40 41 0 42 +18 36 1
196 0 43 28 44 45 ?1 29 22 1363 0 28 45 8 -.128 -.02 -.090930096120387 29 45 119
8 0 36 46 22 -.2875 -.02 .018569903879613 29 46 1194 0 44 47 45 -.1285 -.02 .018
569903879613 18 44 1192 0 48 36 49 46 ?1 29 47 1191 0 49 50 46 -.2875 -.02 -.080
930096120387 18 49 1189 0 51 44 52 47 ?1 29 50 1188 0 52 53 47 -.1285 -.02 -.080
930096120387 18 52 1186 0 24 49 54 50 ?1 29 53 1178 0 54 55 50 -.2875 -.0195 .01
9069903879613 18 54 1176 0 56 52 57 53 ?1 29 55 1174 0 57 58 53 -.1285 -.0195 .0
1906990387961305 18 57 1172 0 59 54 60 55 ?1 29 58 1170 0 60 61 55 -.2875 -.0004
99999999999889 .019069903879613 18 60 1168 0 62 57 63 58 ?1 29 61 1167 0 63 64 5
8 -.1285 -.000499999999999889 .01906990387961305 18 63 1165 0 65 60 66 61 ?1 29
 64 1155 0 66 67 61 -.1285 1110223024625156e-31 .018569903879613 18 66 1153 0 68
 63 69 64 ?1 29 67 1152 0 69 70 64 -.2875 1110223024625156e-31 .018569903879613
 18 69 1150 0 71 66 72 67 ?1 29 70 1141 0 72 73 67 -.288 -.000499999999999889 .0
1856990387961295 18 72 1139 0 74 69 75 70 ?1 29 73 1135 0 75 76 70 -.288 -.0195
 .01856990387961295 18 75 1133 0 77 72 78 73 ?1 29 76 1132 0 78 79 73 -.288 -.01
95 -.080930096120387 18 78 1130 0 31 75 80 76 ?1 29 79 1117 0 80 81 76 -.2875 11
10223024625156e-31 -.0912012749070979 18 80 1115 0 82 78 83 79 ?1 29 81 1114 0 8
3 84 79 -.288 -.01950000000000065 -.0909300961203877 18 83 1112 0 85 80 86 81 ?1
 29 84 1111 0 86 87 81 -.288 -.000499999999999889 -.0909300961203877 18 86 1109
 0 88 83 89 84 ?1 29 87 1102 0 89 90 84 -.2326859388155745 -.0195 -.120930096120
3872 18 89 1100 0 91 86 92 87 ?1 29 90 1091 0 92 93 87 -.128 -.0195 -.0809300961
20387 18 92 1089 0 94 89 95 90 ?1 29 93 1087 0 95 96 90 -.128 -.0195 .0185699038
79613 18 95 1085 0 97 92 98 93 ?1 29 96 1083 0 98 99 93 -.128 -.0004999999999998
89 .018569903879613 18 98 1081 0 100 95 101 96 ?1 29 99 1073 0 101 102 96 -.1834
40922049098 -.02 -.120430096120387 18 101 1071 0 103 98 104 99 ?1 29 102 1069 0
 104 105 99 -.232559077950902 -.02 -.120430096120387 18 104 1067 0 106 101 107 1
02 ?1 29 105 1054 0 107 108 102 -.128 -.0195 -.090930096120387 18 107 1052 0 39
 104 109 105 ?1 29 108 1051 0 109 110 105 -.128 -.000499999999999889 -.090930096
120387 18 109 1049 0 111 107 112 108 ?1 29 110 1048 0 112 113 108 -.1285 1110223
024625156e-31 -.0912012749070971 18 112 1046 0 114 109 115 110 ?1 29 113 1045 0
 115 116 110 -.183314061184425 -.0195 -.120930096120387 18 115 1043 0 117 112 11
8 113 ?1 29 116 1035 0 118 119 113 -.153 -.0695 -.090930096120387 18 118 1033 0
 120 115 121 116 ?1 29 119 1032 0 121 122 116 -.286951238115588 -.02 -.090930096
120387 18 121 1030 0 123 118 124 119 ?1 29 122 1029 0 124 125 119 -.129048761884
4134 -.02 -.090930096120387 18 124 1027 0 126 121 127 122 ?1 29 125 1019 0 127 1
28 122 -.26188196601125 -.07 .018569903879613 18 127 1017 0 129 124 130 125 ?1 2
9 128 1015 0 130 131 125 -.26188196601125 -.07 -.090430096120387 18 130 1013 0 1
32 127 133 128 ?1 29 131 1011 0 133 134 128 -.1535 -.07 .018569903879613 18 133
 1009 0 135 130 136 131 ?1 29 134 1008 0 136 137 131 -.1535 -.07 -.0904300961203
87 18 136 1006 0 138 133 139 134 ?1 29 137 998 0 139 140 134 -.2678333333333335
 -.0603333333333332 .01890323721294635 18 139 996 0 141 136 142 137 ?1 29 140 99
4 0 142 143 137 -.2678333333333335 -.0603333333333332 -.080930096120387 18 142 9
92 0 30 139 144 140 ?1 29 143 984 0 144 145 140 -.26322360679775 -.0695527864044
999 .01901711747511305 18 144 982 0 146 142 147 143 ?1 29 145 980 0 147 148 143
 -.26322360679775 -.0695527864044999 -.090877309715887 18 147 978 0 149 144 150
 145 ?1 29 148 977 0 150 151 145 -.26325 -.0695 -.090930096120387 18 150 975 0 1
52 147 153 148 ?1 29 151 961 0 153 154 148 -.153 -.0695 .019069903879613 18 153
 959 0 155 150 156 151 ?1 29 154 958 0 156 157 151 -.26325 -.0695 .0190699038796
13 18 156 956 0 158 153 159 154 ?1 29 157 955 0 159 160 154 -.26775 -.0605 .0190
69903879613 18 159 953 0 161 156 162 157 ?1 29 160 945 0 162 163 157 -.1485 -.06
 .01856990387961305 18 162 943 0 164 159 165 160 ?1 29 163 941 0 165 166 160 -.2
675 -.06 .01856990387961305 18 165 939 0 167 162 168 163 ?1 29 166 938 0 168 169
 163 -.2675 -.06 -.080930096120387 18 168 936 0 170 165 171 166 ?1 29 169 935 0
 171 172 166 -.1485 -.06 -.080930096120387 18 171 933 0 173 168 174 169 ?1 29 17
2 925 0 174 175 169 -.1481666666666666 -.0603333333333332 -.080930096120387 18 1
74 923 0 176 171 177 172 ?1 29 175 921 0 177 178 172 -.1481666666666666 -.060333
3333333332 .01890323721294635 18 177 919 0 179 174 180 175 ?1 29 178 912 0 180 1
81 175 -.1525 -.069 -.090930096120387 18 180 910 0 182 177 183 178 ?1 29 181 909
 0 183 184 178 -.14825 -.0605 .019069903879613 18 183 907 0 185 180 186 181 ?1 2
9 184 906 0 186 187 181 -.1525 -.069 .019069903879613 18 186 904 0 188 183 189 1
84 ?1 29 187 651 0 189 190 184 -.1833140611844255 1110223024625156e-31 -.1209300
96120387 18 189 649 0 191 186 192 187 ?1 29 190 602 0 192 193 187 -.128 -.02 -.0
80930096120387 18 192 516 0 194 189 195 190 ?1 29 193 831 0 196 197 190 -.288 -.
02 -.0909300961203877 18 196 779 0 198 195 0 193 ?1 29 197 835 0 195 0 193 -.232
6859388155745 1110223024625156e-31 -.1209300961203872 18 195 778 0 199 192 196 1
97 ?1 17 199 0 200 201 82 195 202 203 0 204 -15 255 200 791 0 201 205 0 17 201 0
 200 206 199 89 204 207 0 208 +17 82 0 200 199 209 80 88 210 0 202 +17 202 0 211
 71 212 80 199 203 0 213 +16 203 761 0 ?202 207 214 215 0 0 1 17 204 0 216 217 9
1 195 201 207 0 212 -15 216 89 0 218 219 0 17 217 0 216 218 204 189 212 220 0 0
 +17 91 0 216 204 218 89 221 222 0 201 +16 207 756 0 ?201 223 203 224 0 0 1 17 2
12 0 211 202 191 195 217 220 0 0 -15 211 1151 0 202 225 0 17 191 0 211 212 114 1
89 226 227 0 228 +16 220 647 0 ?217 229 230 231 0 0 1 16 229 913 0 ?182 232 220
 233 0 0 1 16 230 1028 0 ?234 220 235 236 0 0 1 30 231 74 0 220 237 233 0 +-.288
 1110223024625156e-31 -.120930096120387 1 0 0 30 237 267 0 238 239 231 0 +-.128
 -.06 -.080930096120387 -1 0 0 30 233 915 0 229 231 240 0 +-.1525 -.069 -.090930
096120387 0 0 -1 30 240 922 0 232 233 241 0 --.146 -.056 .014569903879613 .33333
33333333335 .666666666666667 -.666666666666667 16 232 920 0 ?185 242 229 240 0 0
 1 30 241 926 0 242 240 243 0 +-.1481666666666666 -.0603333333333332 .0190699038
79613 693889390390723e-31 1387778780781444e-31 1 16 242 924 0 ?244 245 232 241 0
 0 1 30 243 942 0 245 241 246 0 +-.2675 -.06 .019069903879613 -693889390390723e-
31 1387778780781446e-31 1 16 245 940 0 ?167 247 242 243 0 0 1 30 246 946 0 247 2
43 248 0 +-.128 -.06 .01856990387961305 1 0 0 16 247 944 0 ?164 249 245 246 0 0
 1 30 248 949 0 249 246 250 0 +-.1485 -.06 -.080930096120387 -693889390390724e-3
1 -1387778780781446e-31 -1 16 249 947 0 ?173 251 247 248 0 0 1 30 250 962 0 251
 248 252 0 +-.14075 -.05725 .019069903879613 .707106781186548 .707106781186548 0
 16 251 960 0 ?188 253 249 250 0 0 1 30 252 965 0 253 250 254 0 +-.128 -.0695 .0
19069903879613 1 0 0 16 253 963 0 ?255 256 251 252 0 0 1 30 254 971 0 256 252 25
7 0 +-.128 -.0605 .019069903879613 -1 0 0 16 256 969 0 ?161 258 253 254 0 0 1 30
 257 981 0 258 254 259 0 --.248222222222223 -.099555555555554 -.0608745405648313
 -.3333333333333255 .66666666666665 -.666666666666687 16 258 979 0 ?149 260 256
 257 0 0 1 30 259 985 0 260 257 261 0 +-.26322360679775 -.0695527864044999 .0190
69903879613 0 0 1 16 260 983 0 ?146 262 258 259 0 0 1 30 261 988 0 262 259 263 0
 --.248 -.1 -.011430096120387 .3333333333333335 -.666666666666667 -.666666666666
667 16 262 986 0 ?158 264 260 261 0 0 1 30 263 999 0 264 261 265 0 +-.2678333333
333335 -.0603333333333332 -.080930096120387 693889390390723e-31 -138777878078144
6e-31 -1 16 264 997 0 ?266 267 262 263 0 0 1 30 265 1002 0 267 263 268 0 --.2522
22222222222 -.0915555555555554 .0501254594351686 .3333333333333335 -.66666666666
6667 .666666666666667 16 267 1000 0 ?141 269 264 265 0 0 1 30 268 1012 0 269 265
 270 0 +-.1535 -.07 .019069903879613 0 0 1 16 269 1010 0 ?135 271 267 268 0 0 1
 30 270 1016 0 271 268 272 0 +-.128 -.07 -.090430096120387 1 0 0 16 271 1014 0 ?
138 273 269 270 0 0 1 30 272 1020 0 273 270 274 0 +-.26188196601125 -.07 -.09093
0096120387 0 0 -1 16 273 1018 0 ?132 275 271 272 0 0 1 30 274 1023 0 275 272 276
 0 +-.128 -.07 .018569903879613 -1 0 0 16 275 1021 0 ?277 278 273 274 0 0 1 30 2
76 1036 0 278 274 279 0 +-.11575 -.03225 -.090930096120387 -.707106781186548 -.7
07106781186548 0 16 278 1034 0 ?120 280 275 276 0 0 1 30 279 1039 0 280 276 281
 0 +-.128 -.0695 -.090930096120387 -1 0 0 16 280 1037 0 ?152 282 278 279 0 0 1 3
0 281 1057 0 282 279 283 0 --.1350922628773972 .0065922628773969 -.0947766386046
301 -.660220386383192 .660220386383156 -.35807552668132 16 282 1055 0 ?111 284 2
80 281 0 0 1 30 283 1063 0 284 281 285 0 +-.183314061184425 -.0195 -.12093009612
0387 -.879037495013493 0 -.47675264274087 16 284 1061 0 ?286 287 282 283 0 0 1 3
0 285 1070 0 287 283 288 0 +-.232447562494204 -.02 -.1204905773728804 .879037495
013499 0 -.476752642740859 16 287 1068 0 ?106 289 284 285 0 0 1 30 288 1074 0 28
9 285 290 0 +-.183314061184425 -.02 -.120430096120387 1 0 0 16 289 1072 0 ?103 2
91 287 288 0 0 1 30 290 1077 0 291 288 292 0 +-.1282383763213704 -.02 -.09049057
73728802 .879037495013493 0 .47675264274087 16 291 1075 0 ?126 293 289 290 0 0 1
 30 292 1084 0 293 290 294 0 +-.128 -.000499999999999889 -.120930096120387 0 0 1
 16 293 1082 0 ?100 295 291 292 0 0 1 30 294 1088 0 295 292 296 0 +-.128 -.02 .0
18569903879613 0 -1 0 16 295 1086 0 ?97 297 293 294 0 0 1 30 296 1092 0 297 294
 298 0 +-.128 -.0195 -.080930096120387 0 0 -1 16 297 1090 0 ?299 300 295 296 0 0
 1 30 298 1095 0 300 296 301 0 +-.128 -.06 -.080930096120387 0 -1 0 16 300 1093
 0 ?194 222 297 298 0 0 1 30 301 1105 0 222 298 302 0 +-.2326859388155745 -.0195
 -.120930096120387 -1 0 0 16 222 1103 0 ?91 210 300 301 0 0 1 30 302 1120 0 210
 301 303 0 --.2809077371226035 .00659226287739661 -.0947766386046305 -.660220386
383179 -.660220386383179 .3580755266813025 16 210 1118 0 ?82 304 222 302 0 0 1 3
0 303 1126 0 304 302 305 0 +-.288 -.0195 -.0909300961203877 -.879037495013499 0
 .476752642740859 16 304 1124 0 ?206 306 210 303 0 0 1 30 305 1136 0 306 303 307
 0 +-.288 -.0195 .019069903879613 0 0 1 16 306 1134 0 ?77 33 304 305 0 0 1 30 30
7 1138 0 33 305 308 0 +-.288 -.06 -.080930096120387 0 1 0 16 33 1137 0 ?32 309 3
06 307 0 0 1 30 308 1142 0 309 307 310 0 +-.288 -.02 .01856990387961295 0 1 0 16
 309 1140 0 ?74 311 33 308 0 0 1 30 310 1145 0 311 308 312 0 +-.288 -.0004999999
99999889 -.120930096120387 0 0 -1 16 311 1143 0 ?313 314 309 310 0 0 1 30 312 11
56 0 314 310 315 0 +-241602361549481e-32 1110223024625156e-31 .018569903879613 1
 0 1301042606982604e-31 16 314 1154 0 ?68 316 311 312 0 0 1 30 315 1158 0 316 31
2 317 0 +-.1285 1110223024625156e-31 0 0 0 -1 16 316 1157 0 ?114 318 314 315 0 0
 1 30 317 1161 0 318 315 319 0 +-.2875 1110223024625156e-31 0 0 0 1 16 318 1159
 0 ?71 320 316 317 0 0 1 30 319 1171 0 320 317 321 0 +-.128 -.000499999999999889
 .01906990387961305 -1 0 -1301042606982604e-31 16 320 1169 0 ?62 322 318 319 0 0
 1 30 321 1175 0 322 319 323 0 +-.1285 -.02 .01906990387961305 0 1 0 16 322 1173
 0 ?65 324 320 321 0 0 1 30 323 1179 0 324 321 325 0 +-.128 -.0195 .019069903879
61305 1 0 1301042606982604e-31 16 324 1177 0 ?59 326 322 323 0 0 1 30 325 1182 0
 326 323 327 0 +-.2875 -.02 .019069903879613 0 -1 0 16 326 1180 0 ?328 329 324 3
25 0 0 1 30 327 1195 0 329 325 330 0 +-.1285 -.02 .01906990387961305 0 0 1 16 32
9 1193 0 ?48 331 326 327 0 0 1 30 330 1199 0 331 327 332 0 +-.288 -.02 .01856990
3879613 -1 0 -1301042606982604e-31 16 331 1197 0 ?43 333 329 330 0 0 1 30 332 12
02 0 333 330 334 0 +-.2875 -.02 -.080930096120387 0 0 -1 16 333 1200 0 ?51 335 3
31 332 0 0 1 30 334 1536 0 335 332 336 0 +-.1481666666666666 -.0603333333333332
 -.080930096120387 .707106781186548 -.707106781186548 0 16 335 1206 0 ?337 338 3
33 334 0 0 1 30 336 1537 0 338 334 339 0 +-.2678333333333335 -.0603333333333332
 -.080930096120387 .707106781186577 .707106781186518 0 16 338 1211 0 ?170 340 33
5 336 0 0 1 30 339 1538 0 340 336 341 0 +-.1730699690069475 -.0409872268323118 -
.090930096120387 .902663448259846 .4303471844634795 0 16 340 1216 0 ?39 342 338
 339 0 0 1 30 341 1539 0 342 339 343 0 +-.2429300309930515 -.0409872268323117 -.
090930096120387 .902663448259857 -.430347184463457 0 16 342 1221 0 ?123 25 340 3
41 0 0 1 30 343 1540 0 25 341 26 0 +-.2875 -.02 -.080930096120387 -.707106781186
528 .707106781186567 0 16 25 1226 0 ?31 10 342 343 0 0 1 30 26 1541 0 10 343 344
 0 +-.1285 -.02 -.080930096120387 -.707106781186528 -.707106781186567 0 30 344 1
603 0 345 26 346 0 +-.1413333333333332 -.0671666666666665 .0257365705462797 .577
350269189626 -.577350269189626 .577350269189626 16 345 1588 0 ?179 214 347 344 0
 0 1 30 346 1602 0 214 344 348 0 +-.267888888888889 -.0603888888888888 .01895879
27685019 -.577350269189658 -.57735026918961 .57735026918961 16 214 1583 0 ?349 2
03 345 346 0 0 1 30 348 1665 0 350 346 351 0 +-.232018329647613 -.07995454545454
6 .00861535842506689 .904534033733284 -.301511344577774 -.301511344577774 16 350
 1644 0 ?129 352 353 348 0 0 1 30 351 1664 0 352 348 354 0 +-.1526666666666665 -
.0691666666666665 .0194032372129464 .577350269189626 .577350269189626 .577350269
189626 16 352 1642 0 ?155 355 350 351 0 0 1 30 354 1663 0 355 351 356 0 +-.15261
4902911139 -.106422354366705 -.0540077417536799 .904534033733279 -.3015113445777
725 .301511344577789 16 355 1639 0 ?357 347 352 354 0 0 1 30 356 1662 0 347 354
 358 0 --.189333333333334 -.105833333333334 -.054596762787051 -.577350269189615
 -.577350269189615 .577350269189647 16 347 1636 0 ?359 345 355 356 0 0 1 30 358
 1713 0 360 356 361 0 --.1777205665545695 .002545784743286315 -.1429758808636732
 -.176588898346421 -.695994382513536 .695994382513536 16 360 1700 0 ?117 353 20
 358 0 0 1 30 361 1712 0 353 358 362 0 --.2326859388155745 -.0195 -.120930096120
3872 .1765888983464755 -.695994382513529 .695994382513529 16 353 1695 0 ?363 350
 360 361 0 0 1 30 362 1829 0 364 361 365 0 +-.2875 1110223024625156e-31 .0185699
03879613 .707106781186548 .707106781186548 197183164445263e-28 16 364 1783 0 ?36
6 367 0 362 0 0 1 30 365 1828 0 367 362 368 0 --.28775 -.00049999999999989 .0188
1990387961295 -.707106781186518 -961481343191773e-31 -.707106781186577 16 367 17
81 0 ?369 370 364 365 0 0 1 30 368 1827 0 370 365 371 0 --.2875 1110223024625156
e-31 .018569903879613 -741429498937768e-30 -.707106781186528 .707106781186567 16
 370 1780 0 ?372 373 367 368 0 0 1 30 371 1826 0 373 368 374 0 +-.2875 -.0195 .0
19069903879613 .707106781186518 -391322906679059e-28 .707106781186577 16 373 177
8 0 ?56 375 370 371 0 0 1 30 374 1825 0 375 371 376 0 +-.1285 -.0004999999999998
89 .01906990387961305 -400382608598657e-28 .707106781186528 -.707106781186567 16
 375 1775 0 ?377 378 373 374 0 0 1 30 376 1824 0 378 374 379 0 +-.28775 -.01975
 .01856990387961295 .707106781186528 -.707106781186567 1956236335648555e-29 16 3
78 1773 0 ?380 381 375 376 0 0 1 30 379 1823 0 381 376 382 0 +-.2875 -.0195 .019
069903879613 -769185074553369e-30 .707106781186528 .707106781186567 16 381 1772
 0 ?383 384 378 379 0 0 1 30 382 1822 0 384 379 385 0 --.1285 -.0004999999999998
89 .01906990387961305 -.707106781186523 -1239037099348022e-31 .707106781186572 1
6 384 1771 0 ?386 387 381 382 0 0 1 30 385 1821 0 387 382 388 0 --.12825 -.00024
9999999999886 .018569903879613 .707106781186567 -.707106781186528 -9813231056349
12e-29 16 387 1770 0 ?389 390 384 385 0 0 1 30 388 1820 0 390 385 21 0 --.1285 -
.0195 .01906990387961305 -933725767576091e-30 -.707106781186528 -.70710678118656
7 16 390 1765 0 ?391 392 387 388 0 0 1 30 21 1819 0 392 388 7 0 +-.1285 -.0195 .
01906990387961305 .707106781186523 391322906679057e-28 -.707106781186572 16 392
 1762 0 ?393 20 390 21 0 0 1 17 393 0 394 395 396 95 397 392 0 0 +16 20 1757 0 ?
398 360 392 7 0 0 1 17 398 0 399 397 400 95 401 20 0 393 +15 399 1731 0 400 402
 0 17 397 0 399 400 398 57 393 392 0 396 -17 400 0 399 398 397 44 391 390 0 403
 -17 401 0 404 405 406 44 398 20 0 400 -15 404 1729 0 401 18 0 17 405 0 404 407
 401 52 48 329 0 0 -17 406 0 404 401 407 95 299 297 0 398 -17 407 0 404 406 405
 92 24 10 0 0 -17 299 0 408 194 97 92 406 297 0 407 +15 408 87 0 299 409 0 17 19
4 0 408 42 299 192 94 300 0 410 +17 97 0 408 299 100 95 395 295 0 406 +17 100 0
 408 97 411 98 412 293 0 395 +17 395 0 394 413 393 98 97 295 0 414 -15 394 1735
 0 393 415 0 17 413 0 394 396 395 63 386 384 0 416 -17 414 0 417 412 418 98 389
 387 0 386 -15 417 1733 0 419 420 0 17 412 0 417 419 414 109 100 293 0 0 -17 418
 0 417 414 419 66 114 316 0 389 -17 389 0 421 416 386 66 414 387 0 377 +17 386 0
 421 389 416 98 413 384 0 0 +15 421 1741 0 386 422 0 17 416 0 421 386 389 63 377
 375 0 423 -17 377 0 424 425 423 66 416 375 0 0 +17 423 0 424 377 426 63 62 320
 0 0 -15 424 1745 0 377 427 0 17 426 0 424 423 425 60 372 370 0 369 -17 62 0 428
 328 65 60 423 320 0 429 +15 428 1166 0 62 430 0 17 328 0 428 59 62 54 429 326 0
 0 +17 65 0 428 62 59 63 396 322 0 413 +17 429 0 431 432 56 60 328 326 0 426 -15
 431 1747 0 56 433 0 17 432 0 431 434 429 72 369 367 0 435 -17 56 0 431 429 434
 54 436 373 0 383 +17 434 0 431 56 432 75 74 309 0 0 -17 436 0 437 380 383 75 56
 373 0 434 -17 383 0 437 436 380 54 438 381 0 439 +15 437 1743 0 380 440 0 17 38
0 0 437 383 436 36 441 378 0 0 +17 438 0 442 403 439 36 383 381 0 380 -17 439 0
 442 438 391 54 59 324 0 328 -15 442 1737 0 391 443 0 17 391 0 442 439 403 57 40
0 390 0 397 +17 59 0 428 65 328 57 439 324 0 391 +17 403 0 442 391 438 44 43 331
 0 0 -17 43 0 444 51 48 36 403 331 0 445 +15 444 166 0 43 446 0 17 51 0 444 447
 43 49 445 333 0 448 +17 48 0 444 43 447 44 405 329 0 401 +17 445 0 449 441 450
 36 51 333 0 438 -15 449 1739 0 450 451 0 17 441 0 449 452 445 75 380 378 0 436
 -17 450 0 449 445 452 49 31 25 0 0 -17 452 0 449 450 441 78 77 306 0 0 -17 31 0
 29 27 448 78 450 25 0 32 +15 29 380 0 30 453 0 17 448 0 29 31 24 49 447 235 0 4
50 +17 32 0 454 77 34 78 27 33 0 452 +15 454 83 0 74 455 0 17 77 0 454 74 32 75
 452 306 0 441 +17 34 0 454 32 198 11 456 457 0 458 -17 198 0 454 34 459 196 85
 223 0 456 +17 456 0 460 461 458 196 34 457 0 462 +16 457 425 0 ?456 463 464 465
 0 0 1 17 458 0 460 456 266 11 30 466 0 0 +15 460 468 0 467 468 0 17 266 0 460 4
58 141 142 469 264 0 470 +17 30 0 29 170 27 142 458 466 0 266 -16 466 407 0 ?458
 238 463 471 0 0 1 16 238 934 0 ?472 235 466 237 0 0 1 16 463 481 0 ?176 466 457
 473 0 0 1 30 471 567 0 466 473 236 0 +-.24 -.116 -.080930096120387 -.4472135954
99958 .894427190999916 0 30 473 572 0 463 474 471 0 +-.144 -.052 -.0809300961203
87 -.4472135954999585 -.894427190999916 0 30 236 269 0 230 471 239 0 +-.128 -.02
 -.090930096120387 -1 0 0 30 239 268 0 235 236 237 0 +-.128 -.02 -.0809300961203
87 -1 0 0 16 235 1187 0 ?448 230 238 239 0 0 1 30 474 577 0 475 476 473 0 +-.128
 -.02 .019069903879613 0 0 -1 16 475 492 0 ?42 477 478 474 0 0 1 30 476 582 0 47
9 480 474 0 +-.153 -.07 -.090930096120387 .4472135954999585 .894427190999916 0 1
6 479 911 0 ?481 478 482 476 0 0 1 30 480 585 0 478 465 476 0 +-.153 -.07 .01906
9903879613 .4472135954999585 .894427190999916 0 16 478 905 0 ?483 475 479 480 0
 0 1 30 465 587 0 457 484 480 0 +-.288 -.02 .019069903879613 0 0 -1 30 484 589 0
 477 485 465 0 +-.263 -.07 -.090930096120387 .447213595499958 -.894427190999916
 0 16 477 436 0 ?461 464 475 484 0 0 1 30 485 592 0 464 224 484 0 +-.263 -.07 .0
19069903879613 .447213595499958 -.894427190999916 0 16 464 954 0 ?486 457 477 48
5 0 0 1 30 224 812 0 207 487 485 0 +-.2326859388155745 1110223024625156e-31 -.12
09300961203872 0 -1 0 30 487 813 0 223 215 224 0 +-.288 1110223024625156e-31 -.0
909300961203877 0 -1 0 16 223 1113 0 ?198 488 207 487 488 488 1 30 215 819 0 203
 489 487 0 +-.2326859388155745 1110223024625156e-31 -.1209300961203872 -.8790374
95013499 0 .476752642740859 30 489 822 0 41 490 215 0 +-.128 1110223024625156e-3
1 -.090930096120387 0 -1 0 16 41 1053 0 ?35 491 227 489 491 491 1 30 490 823 0 4
82 492 489 0 +-.183314061184425 1110223024625156e-31 -.120930096120387 0 -1 0 16
 482 714 0 ?218 479 491 490 0 0 1 30 492 827 0 227 0 490 0 +-.183314061184425 11
10223024625156e-31 -.120930096120387 -.879037495013493 0 -.476752642740869 16 22
7 1047 0 ?191 41 488 492 0 0 1 16 488 1110 0 ?459 227 223 487 223 223 1 17 459 0
 454 198 313 83 209 488 0 493 +17 313 0 454 459 74 86 494 311 0 209 +17 209 0 20
0 82 206 86 459 488 0 0 -17 493 0 495 208 496 83 123 342 0 0 -15 495 1684 0 493
 497 0 17 208 0 495 498 493 89 206 304 0 363 -17 496 0 495 493 498 121 106 287 0
 0 -17 123 0 37 499 85 121 493 342 0 234 +15 37 389 0 120 500 0 17 499 0 37 39 1
23 124 234 230 0 501 -17 85 0 37 123 462 83 198 223 0 206 -17 234 0 502 106 126
 121 499 230 0 496 +15 502 702 0 103 16 0 17 106 0 502 103 234 104 496 287 0 498
 +17 126 0 502 234 103 124 503 291 0 499 +17 103 0 502 126 106 101 504 289 0 503
 +17 503 0 505 117 501 101 126 291 0 506 -15 505 1688 0 501 507 0 17 117 0 505 5
08 503 115 506 360 0 221 +17 501 0 505 503 508 124 39 340 0 0 -17 506 0 509 504
 221 101 117 360 0 0 -15 509 1686 0 363 510 0 17 504 0 509 363 506 104 103 289 0
 0 -17 221 0 509 506 363 115 91 222 0 286 -17 363 0 509 221 504 89 498 353 0 0 +
17 286 0 511 228 512 115 508 284 0 218 +15 511 741 0 512 513 0 17 228 0 511 226
 286 189 218 482 0 217 -17 512 0 511 286 111 107 411 491 0 508 +17 508 0 505 501
 117 107 286 284 0 0 -17 218 0 216 91 217 115 228 482 0 0 +17 111 0 511 512 226
 109 419 282 0 411 +17 411 0 408 100 40 109 512 491 0 412 -16 491 1050 0 ?512 48
2 41 489 41 41 1 17 40 0 408 411 42 107 35 41 0 512 -17 42 0 408 40 194 28 410 4
75 0 481 +17 410 0 514 176 481 192 42 475 0 515 -17 481 0 514 410 182 28 38 479
 0 0 +15 514 538 0 176 516 0 17 182 0 514 481 517 180 518 229 0 38 +17 38 0 37 1
20 35 180 481 479 0 519 -17 120 0 37 152 38 118 519 278 0 520 +17 519 0 521 518
 359 180 120 278 0 0 -15 521 1623 0 518 522 0 17 518 0 521 523 519 186 182 229 0
 0 -17 359 0 521 519 524 118 525 347 0 0 +17 524 0 521 359 526 136 135 269 0 0 -
17 525 0 527 528 520 136 359 347 0 524 -15 527 1621 0 529 530 0 17 528 0 527 531
 525 130 138 271 0 357 -17 520 0 527 525 529 118 152 280 0 359 -17 529 0 527 520
 531 150 149 258 0 0 -17 152 0 37 462 120 150 520 280 0 461 +17 462 0 37 85 152
 196 461 477 0 0 -17 461 0 460 149 456 150 462 477 0 529 +17 149 0 460 146 461 1
47 529 258 0 531 +17 146 0 460 158 149 144 532 260 0 533 +17 531 0 527 529 528 1
47 357 355 0 532 -17 357 0 534 535 532 130 531 355 0 0 +17 532 0 534 357 533 147
 146 260 0 0 -15 534 1625 0 357 536 0 17 533 0 534 532 535 144 129 350 0 537 -17
 535 0 534 533 357 127 132 273 0 277 -17 129 0 538 539 537 127 533 350 0 535 +17
 537 0 538 129 540 144 158 262 0 0 -15 538 1627 0 155 541 0 17 540 0 538 537 155
 156 255 253 0 0 -17 158 0 460 467 146 156 537 262 0 486 +17 467 0 460 141 158 1
59 486 464 0 542 -17 486 0 543 255 161 156 467 464 0 540 +15 543 357 0 483 544 0
 17 255 0 543 188 486 153 540 253 0 0 +17 161 0 543 486 483 159 545 256 0 467 +1
7 483 0 543 161 188 183 517 478 0 545 +17 545 0 546 547 542 183 161 256 0 0 -15
 546 1572 0 545 548 0 17 547 0 546 549 545 177 185 232 0 244 -17 542 0 546 545 3
49 159 141 267 0 0 -17 349 0 546 542 550 139 551 214 0 0 +17 141 0 460 266 467 1
39 542 267 0 469 +17 469 0 552 551 470 139 266 264 0 349 -15 552 1570 0 470 553
 0 17 551 0 552 554 469 165 349 214 0 550 -17 470 0 552 469 554 142 170 338 0 0
 -17 554 0 552 470 551 168 167 245 0 0 -17 170 0 29 555 30 168 470 338 0 472 +17
 555 0 29 337 170 171 472 238 0 556 -17 472 0 557 167 173 168 555 238 0 554 +15
 557 372 0 164 558 0 17 167 0 557 164 472 165 554 245 0 551 +17 173 0 557 472 16
4 171 559 249 0 555 +17 164 0 557 173 167 162 550 247 0 559 +17 559 0 560 179 55
6 162 173 249 0 549 -15 560 1574 0 556 561 0 17 179 0 560 562 559 177 549 345 0
 547 +17 556 0 560 559 562 171 337 335 0 0 -17 549 0 546 550 547 162 179 345 0 0
 -17 550 0 546 349 549 165 164 247 0 0 -17 562 0 560 556 179 174 244 242 0 0 -17
 337 0 29 515 555 174 556 335 0 562 +17 515 0 29 94 337 192 176 463 0 0 -17 94 0
 29 24 515 92 194 300 0 299 -17 176 0 514 244 410 174 515 463 0 337 +17 244 0 51
4 185 176 177 562 242 0 0 +17 185 0 514 517 244 183 547 232 0 483 +17 517 0 514
 182 185 186 483 478 0 518 -17 24 0 29 448 94 52 407 10 0 447 +17 447 0 444 48 5
1 52 448 235 0 405 -14 255 561 1573 563 ?530 548 560 5 564 +0 0 530 548 23 81 1
 563 2087 565 561 566 0 0 567 568 14 530 1620 567 ?522 561 527 5 569 +0 0 522 56
1 23 14 548 1571 570 ?561 553 546 5 571 +0 0 561 553 23 50 564 1601 0 561 572 57
1 0 +-.1481666666666666 -.0603333333333332 .019069903879613 .707106781186548 .70
7106781186548 -147196168001604e-30 -693889390390724e-31 -1387778780781446e-31 -1
 13 23 34 0 0 0 0 0 0 9 16 14 16 163 573 ?219 0 502 5 574 +446 446 219 0 23 81 1
 573 2090 565 16 575 0 570 576 577 14 219 90 576 ?409 16 216 5 572 -0 0 409 16 2
3 50 574 3 0 446 578 579 0 +0 -.02 0 0 -1 0 0 0 -1 14 446 1 580 ?225 455 444 5 5
74 +16 16 225 455 23 81 1 580 2092 565 446 581 0 576 582 583 14 225 48 582 ?500
 446 211 5 579 -0 0 500 446 23 14 455 84 584 ?446 430 454 5 585 -0 0 446 430 23
 81 1 584 2094 565 455 586 0 582 587 588 14 430 86 587 ?455 409 428 5 589 -0 0 4
55 409 23 50 585 91 0 455 579 589 0 +-.288 -.02 -.120930096120387 1 0 0 0 0 -1 5
0 579 70 0 225 574 585 0 +0 1110223024625156e-31 0 0 -1 0 0 0 -1 50 589 92 0 430
 585 590 0 +-.128 -.02 .01906990387961305 1301042606982604e-31 0 -1 -1 0 -130104
2606982604e-31 50 590 93 0 409 589 572 0 +-.128 -.02 -.120930096120387 -1 0 0 0
 0 1 14 409 88 591 ?430 219 408 5 590 -0 0 430 219 23 50 572 94 0 219 590 564 0
 +-.288 -.02 -.120930096120387 0 0 1 1 0 0 81 1 591 2096 565 409 592 0 587 593 5
94 80 255 1 565 595 596 9000 1 1 1 1 1 1 1 1 0 FFFFTFTFFFFFFF1 81 1 592 1970 597
 409 0 591 598 599 600 81 1 587 2095 565 430 599 0 584 591 601 81 1 593 2097 565
 500 602 0 591 603 604 82 255 1 594 -1741616570 14 500 224 593 ?453 225 37 5 578
 +0 0 453 225 23 81 1 602 1975 597 500 0 593 605 606 607 81 1 603 2098 565 453 6
06 0 593 608 609 82 1 604 744819270 14 453 232 603 ?558 500 29 5 610 +0 0 558 50
0 23 81 1 606 1976 597 453 0 603 602 611 612 81 1 608 2099 565 558 611 0 603 613
 614 82 1 609 744294982 14 558 236 608 ?544 453 557 5 615 +0 0 544 453 23 81 1 6
11 1977 597 558 0 608 606 616 617 81 1 613 2100 565 544 616 0 608 618 619 82 1 6
14 744426054 14 544 240 613 ?620 558 543 5 621 +0 0 620 558 23 81 1 616 1978 597
 544 0 613 611 622 623 81 1 618 2101 565 620 622 0 613 624 625 82 1 619 74455712
6 14 620 244 618 ?516 544 626 5 627 +0 0 516 544 23 81 1 622 1979 597 620 0 618
 616 628 629 81 1 624 2102 565 516 628 0 618 630 631 82 1 625 744688198 14 516 5
35 624 ?468 620 514 5 632 -0 0 468 620 23 81 1 628 1980 597 516 0 624 622 633 63
4 81 1 630 2103 565 468 633 0 624 635 636 82 1 631 -1808004538 14 468 465 630 ?2
05 516 460 5 637 -0 0 205 516 23 81 1 633 1981 597 468 0 630 628 638 639 81 1 63
5 2104 565 205 638 0 630 640 641 82 1 636 -1817245114 14 205 788 635 ?513 468 20
0 5 642 -0 0 513 468 23 81 1 638 1982 597 205 0 635 633 643 644 81 1 640 2105 56
5 513 643 0 635 645 646 82 1 641 -215414202 14 513 738 640 ?553 205 511 5 647 -0
 0 553 205 23 81 1 643 1983 597 513 0 640 638 648 649 81 1 645 2106 565 553 648
 0 640 650 651 82 1 646 -224523706 14 553 1569 645 ?548 513 552 5 652 +0 0 548 5
13 23 81 1 648 1984 597 553 0 645 643 653 654 81 1 650 2107 565 522 655 0 645 65
6 657 82 1 651 353241670 14 522 1622 650 ?536 530 521 5 658 +0 0 536 530 23 81 1
 655 1988 597 522 0 650 659 660 661 81 1 656 2108 565 536 660 0 650 662 663 82 1
 657 357829190 14 536 1624 656 ?541 522 534 5 664 +0 0 541 522 23 81 1 660 1989
 597 536 0 656 655 665 666 81 1 662 2109 565 541 665 0 656 667 668 82 1 663 3566
49542 14 541 1626 662 ?497 536 538 5 669 +0 0 497 536 23 81 1 665 1990 597 541 0
 662 660 670 671 81 1 667 2110 565 497 670 0 662 672 673 82 1 668 354748998 14 4
97 1683 667 ?510 541 495 5 674 +0 0 510 541 23 81 1 670 1991 597 497 0 667 665 6
75 676 81 1 672 2111 565 510 675 0 667 677 678 82 1 673 363792966 14 510 1685 67
2 ?507 497 509 5 679 +0 0 507 497 23 81 1 675 1992 597 510 0 672 670 680 681 81
 1 677 2112 565 507 680 0 672 682 683 82 1 678 362613318 14 507 1687 677 ?18 510
 505 5 684 +0 0 18 510 23 81 1 680 1993 597 507 0 677 675 685 686 81 1 682 2113
 565 18 685 0 677 687 688 82 1 683 361105990 14 18 1728 682 ?402 507 404 5 6 +0
 0 402 507 23 81 1 685 1994 597 18 0 682 680 689 690 81 1 687 2114 565 402 689 0
 682 691 692 82 1 688 376375878 14 402 1730 687 ?420 18 399 5 19 +0 0 420 18 23
 81 1 689 1995 597 402 0 687 685 693 694 81 1 691 2115 565 420 693 0 687 695 696
 82 1 692 375982662 14 420 1732 691 ?415 402 417 5 697 +0 0 415 402 23 81 1 693
 1996 597 420 0 691 689 698 699 81 1 695 2116 565 415 698 0 691 700 701 82 1 696
 374934086 14 415 1734 695 ?443 420 394 5 702 +0 0 443 420 23 81 1 698 1997 597
 415 0 695 693 703 704 81 1 700 2117 565 443 703 0 695 705 706 82 1 701 37381997
4 14 443 1736 700 ?451 415 442 5 707 +0 0 451 415 23 81 1 703 1998 597 443 0 700
 698 708 709 81 1 705 2118 565 451 708 0 700 710 711 82 1 706 372705862 14 451 1
738 705 ?422 443 449 5 712 +0 0 422 443 23 81 1 708 1999 597 451 0 705 703 713 7
14 81 1 710 2119 565 422 713 0 705 715 716 82 1 711 371591750 14 422 1740 710 ?4
40 451 421 5 717 +0 0 440 451 23 81 1 713 2000 597 422 0 710 708 718 719 81 1 71
5 2120 565 440 718 0 710 720 721 82 1 716 370739782 14 440 1742 715 ?427 422 437
 5 722 +0 0 427 422 23 81 1 718 2001 597 440 0 715 713 723 724 81 1 720 2121 565
 427 723 0 715 725 726 82 1 721 369953350 14 427 1744 720 ?433 440 424 5 727 +0
 0 433 440 23 81 1 723 2002 597 427 0 720 718 728 729 81 1 725 2122 565 433 728
 0 720 730 731 82 1 726 368839238 14 433 1746 725 ?732 427 431 5 733 +0 0 732 42
7 23 81 1 728 2003 597 433 0 725 723 734 735 81 1 730 2123 565 732 734 0 725 736
 737 82 1 731 367659590 14 732 1748 730 ?738 433 739 5 740 +0 0 738 433 23 81 1
 734 2004 597 732 0 730 728 741 742 81 1 736 2124 565 738 741 0 730 0 743 82 1 7
37 366807622 14 738 1750 736 ?0 732 744 5 745 +0 0 0 732 23 81 1 741 2005 597 73
8 0 736 734 0 746 82 1 743 365300294 80 1 597 0 747 8001 0 0 0 0 3 5 0 0 0 FFFFT
FTFFFFFFF2 83 255 3 746 1 1 1 79 255 15 747 SDL/TYSA_COLOUR15 744 1751 0 366 738
 0 50 745 1817 0 738 674 740 0 --.288 -.000499999999999889 -.120930096120387 .70
7106781186548 -.707106781186548 0 0 0 -1 50 674 1709 0 497 679 745 0 +-.23268593
88155745 -.0195 -.1209300961203872 -.3371150266306665 -.707106781186552 -.621573
373641277 .879037495013499 0 -.476752642740859 50 740 1816 0 732 745 733 0 +-.28
75 1110223024625156e-31 .018569903879613 -.577350269189647 .577350269189631 .577
350269189599 -.707106781186538 -.707106781186558 0 50 733 1815 0 433 740 727 0 -
-.288 -.02 .01856990387961295 .707106781186577 0 -.707106781186518 0 1 0 50 727
 1814 0 427 733 722 0 --.128 -.000499999999999889 .01906990387961305 91997605001
e-27 -.707106781186567 -.707106781186528 -1 0 -1301042606982604e-31 50 722 1813
 0 440 727 717 0 +-.2875 -.0195 .019069903879613 -.577350269189669 -.57735026918
962 .577350269189588 .707106781186518 -.707106781186577 0 50 717 1812 0 422 722
 712 0 +-.1285 -.000499999999999889 .01906990387961305 .577350269189631 .5773502
69189655 .577350269189591 -.707106781186562 .707106781186533 0 50 712 1811 0 451
 717 707 0 +-.2875 -.02 0 -.707106781186567 -.707106781186528 0 0 0 1 50 707 181
0 0 443 712 702 0 +-241602361549481e-32 -.02 .018569903879613 -91997605001e-27 -
.707106781186567 .707106781186528 1 0 1301042606982604e-31 50 702 1809 0 415 707
 697 0 --.1285 -.02 .01906990387961305 -.707106781186572 0 -.707106781186523 0 1
 0 50 697 1808 0 420 702 19 0 --.128 -.000499999999999889 -.120930096120387 -.70
7106781186528 -.707106781186567 0 0 0 1 50 19 1807 0 402 697 6 0 +-.1285 -.0195
 .01906990387961305 .577350269189663 -.577350269189623 .577350269189591 .7071067
81186523 .707106781186572 0 50 679 1710 0 510 684 674 0 +0 -.02 -.12043009612038
7 0 -.707106781186548 -.707106781186548 -1 0 0 50 684 1711 0 507 569 679 0 +-.18
3314061184425 -.0195 -.120930096120387 .337115026630681 -.707106781186538 -.6215
73373641286 .879037495013493 0 .47675264274087 50 569 1658 0 530 658 684 0 --.12
8 -.0695 -.090930096120387 0 .707106781186567 .707106781186528 -1 0 0 50 658 165
9 0 522 664 569 0 +-.1525 -.069 .019069903879613 .707106781186548 -.707106781186
548 0 0 0 1 50 664 1660 0 536 669 658 0 +-.26188196601125 -.07 -.090930096120387
 -.3162277660168495 -.94868329805051 0 0 0 1 50 669 1661 0 541 652 664 0 --.128
 -.07 .018569903879613 0 .707106781186548 -.707106781186548 -1 0 0 50 652 1599 0
 553 571 669 0 +-.2678333333333335 -.0603333333333332 .019069903879613 -.7071067
81186518 .707106781186577 -147196168001606e-30 -693889390390723e-31 138777878078
1446e-31 1 50 571 1600 0 548 564 652 0 --.128 -.0605 .019069903879613 0 -.707106
781186548 -.707106781186548 -1 0 0 17 366 0 744 213 494 69 435 364 0 0 +17 213 0
 744 88 366 80 71 318 0 0 -17 494 0 744 366 88 72 313 311 0 0 -17 435 0 739 369
 372 72 366 364 0 494 -15 739 1749 0 369 732 0 17 369 0 739 372 435 60 432 367 0
 0 +17 372 0 739 435 369 69 426 370 0 366 +17 88 0 744 494 213 86 82 210 0 313 -
17 71 0 211 68 202 69 213 318 0 425 +17 68 0 211 114 71 66 425 314 0 418 +17 425
 0 424 426 377 69 68 314 0 372 -17 114 0 211 191 68 112 418 316 0 226 +17 226 0
 511 111 228 112 191 227 0 419 -17 419 0 417 418 412 112 111 282 0 0 -83 3 742 1
 1 1 83 3 735 1 1 1 83 3 729 1 1 1 83 3 724 1 1 1 83 3 719 1 1 1 83 3 714 1 1 1
 83 3 709 1 1 1 83 3 704 1 1 1 83 3 699 1 1 1 83 3 694 1 1 1 83 3 690 1 1 1 83 3
 686 1 1 1 83 3 681 1 1 1 83 3 676 1 1 1 83 3 671 1 1 1 83 3 666 1 1 1 81 1 659
 1987 597 530 0 567 566 655 748 83 3 661 1 1 1 81 1 567 2088 565 530 659 0 563 5
70 749 81 1 566 1986 597 561 0 563 653 659 750 83 3 748 1 1 1 81 1 653 1985 597
 548 0 570 648 566 751 83 3 750 1 1 1 81 1 570 2089 565 548 653 0 567 573 752 83
 3 751 1 1 1 82 1 752 351406662 82 1 749 359598662 83 3 654 1 1 1 83 3 649 1 1 1
 50 647 809 0 513 0 642 0 +-.183314061184425 1110223024625156e-31 -.120930096120
387 -.47675264274087 0 .879037495013493 .879037495013493 0 .47675264274087 50 64
2 803 0 205 647 637 0 +-.2326859388155745 1110223024625156e-31 -.120930096120387
2 .476752642740859 0 .879037495013499 .879037495013499 0 -.476752642740859 50 63
7 564 0 468 642 632 0 +-.263 -.07 .019069903879613 .894427190999916 .44721359549
9958 0 -.447213595499958 .894427190999916 0 50 632 557 0 516 637 610 0 +-.153 -.
07 .019069903879613 -.894427190999916 .4472135954999585 0 -.4472135954999585 -.8
94427190999916 0 50 610 260 0 453 632 615 0 +-.128 -.06 -.080930096120387 0 0 1
 1 0 0 50 615 259 0 558 610 621 0 +-.128 -.06 .019069903879613 0 1 -138777878078
1446e-31 0 1387778780781446e-31 1 50 621 258 0 544 615 627 0 +-.128 -.07 .019069
903879613 0 0 1 1 0 0 50 627 257 0 620 621 578 0 +-.128 -.07 -.090930096120387 0
 -1 0 0 0 -1 50 578 256 0 500 627 574 0 +-.128 -.02 -.090930096120387 0 0 -1 -1
 0 0 83 3 644 1 1 1 83 3 639 1 1 1 83 3 634 1 1 1 83 3 629 1 1 1 15 626 1007 0 1
35 620 0 17 135 0 626 277 138 133 524 269 0 526 +17 277 0 626 132 135 127 539 27
5 0 0 +17 138 0 626 135 132 136 528 271 0 525 +17 526 0 521 524 523 133 155 352
 0 539 -17 523 0 521 526 518 153 188 251 0 255 -17 155 0 538 540 539 153 526 352
 0 523 +17 539 0 538 155 129 133 277 275 0 0 -17 188 0 543 483 255 186 523 251 0
 517 +17 132 0 626 138 277 130 535 273 0 528 +83 3 623 1 1 1 83 3 617 1 1 1 83 3
 612 1 1 1 81 1 605 1974 597 225 0 582 581 602 753 83 3 607 1 1 1 81 1 582 2093
 565 225 605 0 580 584 754 81 1 581 1973 597 446 0 580 586 605 755 83 3 753 1 1
 1 81 1 586 1972 597 455 0 584 599 581 756 83 3 755 .752941176470588 .7529411764
70588 .752941176470588 81 1 599 1971 597 430 0 587 592 586 757 83 3 756 1 1 1 83
 3 757 1 1 1 82 1 754 -1743058362 82 1 601 -1741878714 81 1 598 1969 597 219 0 5
76 575 592 758 83 3 600 1 1 1 81 1 576 2091 565 219 598 0 573 580 759 81 1 575 1
968 597 16 0 573 0 598 760 83 3 758 1 1 1 83 3 760 .752941176470588 .75294117647
0588 .752941176470588 82 1 759 -1741354426 79 14 596 SWEntUnchanged82 1 588 -174
2140858 82 1 583 -1748694458 82 1 577 750127686 82 1 568 349899334 17 498 0 495
 496 208 104 363 353 0 504 -17 39 0 37 35 499 107 501 340 0 40 +17 206 0 200 209
 201 83 208 304 0 459 +17 74 0 454 313 77 72 434 309 0 432 +17 396 0 394 393 413
 57 65 322 0 0 -19 17 100 0 1 0 9 5 S0 74 4 CI16 index_map_offset0 0 1 dCCZ20 15
 9 0 0 761 762 763 736 764 765 741 13 2 0 0 0 0 0 0 0 0 0 0 0 81 2 761 297 766 1
 0 762 0 0 0 767 81 2 762 306 768 1 761 763 0 0 0 769 81 2 763 880 770 1 762 764
 0 0 0 771 81 1 764 1934 772 1 763 765 0 0 773 81 2 765 1966 774 1 764 13 0 0 0
 0 81 2 13 2085 775 1 765 2 0 0 776 0 80 2 775 777 778 8004 0 0 0 0 3 5 0 0 0 FF
TFFFFFFFFFFF2 3 83 1 776 1e3 79 16 778 SDL/TYSA_DENSITY80 2 774 779 780 9000 0 0
 0 0 3 5 0 0 0 FFTFFFFFFFFFFF9 1 79 16 780 BODY_RECIPE_200180 1 772 781 782 9000
 1 1 1 1 1 1 1 1 0 FFTFFFFFFFFFFF1 82 1 773 1152963 79 10 782 BODY_MATCH80 2 770
 783 784 9000 0 0 0 0 3 5 0 0 0 FFTFFFFFFFFFFF9 1 82 1 771 1 79 24 784 BODY_IN_L
IGHTWEIGHT_PERM80 2 768 785 786 9000 0 0 0 0 3 5 0 0 0 FFTFFFFFFFFFFF9 1 82 1 76
9 597 79 30 786 LAST_BODY_MODIFYING_FEATURE_ID80 2 766 787 788 9000 0 0 0 0 3 5
 0 0 0 FFTFFFFFFFFFFF9 1 82 1 767 4486 79 19 788 ENT_TIME_STAMP_200180 2 12 789
 790 9000 0 0 0 0 3 5 0 0 0 FFTFFFFFFFFFFF9 1 82 1 14 268 79 12 790 ATOM_ID_2001
1 0 
