**ABCDEFGHIJKLMNOPQRSTUVWXYZabcdefghijklmnopqrstuvwxyz**************************
**PARASOLID !"#$%&'()*+,-./:;<=>?@[\]^_`{|}~0123456789**************************
**PART1;
MC=AMD64;
MC_MODEL=Intel64 Family 6 Model 158 Stepping 10, GenuineIntel;
MC_ID=unknown;
OS=Windows_NT;
OS_RELEASE=unknown;
FRU=Parasolid Version 31.0, build 290,  9- 1-2019;
APPL=SOLIDWORKS 2019-2019304;
SITE=;
USER=unknown;
FORMAT=text;
GUISE=transmit;
KEY=IMU;
FILE=IMU.x_t;
DATE=Sat May 16 15:49:27 2020;
**PART2;
SCH=SCH_3100290_31001;
USFLD_SIZE=0;
**PART3;
**END_OF_HEADER*****************************************************************
T51 : TRANSMIT FILE created by modeller version 310029023 SCH_3100290_31001_1300
6215 0 12 34 CCCCCCI4 mesh1006 0 I8 polyline1008 0 CCCCCCCDI5 owner1040 0 CCCCCC
I13 boundary_mesh1006 0 I17 boundary_polyline1008 0 CCCA16 index_map_offset0 0 1
 dA9 index_map82 0 A17 node_id_index_map82 0 A20 schema_embedding_map82 0 A5 chi
ld12 0 A14 lowest_node_id0 0 1 dA16 mesh_offset_data206 0 Z1 679 2 3 0 0 0 0 0 0
 1e3 1e-8 0 4 0 1 0 1 1 5 6 7 8 0 0 9 10 11 0 0 0 0 0 0 0 81 255 2 2 653 12 1 13
 0 0 0 0 14 70 11 CI9 list_type0 0 1 uI10 notransmit0 0 1 lCCCDCCDI12 finger_ind
ex0 0 1 dI12 finger_block1012 0 CZ3 0 4 T1 0 0 8 20 1 15 15 13 255 5 99 0 1 0 16
 0 0 17 0 50 255 6 402 0 18 19 0 0 --.0235 5e-4 -.022 .707106781186538 .70710678
1186557 0 0 0 1 30 255 7 422 0 20 21 0 0 --.0235 5e-4 .0215 -.707106781186557 .7
07106781186538 -640987562127819e-31 29 255 8 262 0 11 22 0 -.023 5e-4 -.022 19 8
 CCCCCCCA5 owner12 0 Z9 33 0 1 17 0 23 V0 16 255 10 264 0 ?24 0 25 26 0 0 1 18 2
55 11 260 0 27 0 28 8 ?1 17 255 27 0 29 30 31 11 32 25 0 33 -18 28 256 0 34 11 3
5 22 ?1 17 34 0 36 24 37 28 38 39 0 40 +18 35 252 0 37 28 41 42 ?1 29 22 258 0 2
8 42 8 .023 5e-4 -.022 29 42 254 0 35 43 22 .023 .0135 -.022 29 43 251 0 41 44 4
2 -.023 .0135 -.022 18 41 249 0 32 35 45 43 ?1 29 44 242 0 45 46 43 -.023 .00050
0000000000014 .022 18 45 240 0 47 41 48 44 ?1 29 46 238 0 48 49 44 .023 .0005000
00000000014 .022 18 48 236 0 50 45 51 46 ?1 29 49 234 0 51 52 46 -.023 .0135 .02
2 18 51 232 0 53 48 54 49 ?1 29 52 231 0 54 55 49 .023 .0135 .022 18 54 229 0 56
 51 57 52 ?1 29 55 222 0 57 58 52 -.023 0 .0215 18 57 220 0 59 54 60 55 ?1 29 58
 218 0 60 61 55 .023 0 .0215 18 60 216 0 62 57 63 58 ?1 29 61 214 0 63 64 58 .02
3 0 -.0215 18 63 212 0 65 60 66 61 ?1 29 64 211 0 66 67 61 -.023 0 -.0215 18 66
 209 0 68 63 69 64 ?1 29 67 202 0 69 70 64 -.0235 5e-4 -.0215 18 69 200 0 71 66
 72 67 ?1 29 70 198 0 72 73 67 -.0235 5e-4 .0215 18 72 196 0 74 69 75 70 ?1 29 7
3 194 0 75 76 70 -.0235 .0135 -.0215 18 75 192 0 77 72 78 73 ?1 29 76 191 0 78 7
9 73 -.0235 .0135 .0215 18 78 189 0 80 75 81 76 ?1 29 79 182 0 81 82 76 .0235 .0
135 -.0215 18 81 180 0 83 78 84 79 ?1 29 82 178 0 84 85 79 .0235 5e-4 -.0215 18
 84 176 0 86 81 87 82 ?1 29 85 174 0 87 88 82 .0235 5e-4 .0215 18 87 172 0 89 84
 90 85 ?1 29 88 171 0 90 91 85 .0235 .0135 .0215 18 90 169 0 92 87 93 88 ?1 29 9
1 162 0 93 94 88 .023 .014 -.0215 18 93 160 0 95 90 96 91 ?1 29 94 158 0 96 97 9
1 -.023 .014 -.0215 18 96 156 0 98 93 99 94 ?1 29 97 154 0 99 100 94 .023 .014 .
0215 18 99 152 0 101 96 102 97 ?1 29 100 151 0 102 0 97 -.023 .014 .0215 18 102
 149 0 103 99 0 100 ?1 17 103 0 104 101 98 102 105 106 0 107 +15 255 104 150 0 1
01 108 0 17 101 0 104 109 103 99 110 111 0 112 +17 98 0 104 103 109 96 113 114 0
 105 +17 105 0 115 116 107 96 103 106 0 117 -16 106 157 0 ?103 114 111 118 0 0 1
 17 107 0 115 105 119 102 120 121 0 122 -15 115 297 0 116 123 0 17 119 0 115 107
 116 78 77 124 0 125 -17 120 0 126 127 122 78 107 121 0 0 +16 121 353 0 ?120 128
 129 130 0 0 1 17 122 0 126 120 127 102 131 132 0 110 -15 126 309 0 120 133 0 17
 127 0 126 122 120 51 125 128 0 131 +17 131 0 134 135 110 51 122 132 0 0 +16 132
 362 0 ?131 136 137 138 0 0 1 17 110 0 134 131 112 102 101 111 0 0 -15 134 317 0
 131 139 0 17 112 0 134 110 135 99 140 141 0 142 -16 111 153 0 ?101 106 20 143 0
 0 1 16 20 332 0 ?144 111 145 7 0 0 1 30 143 155 0 111 0 118 0 +.0235 .014 .0215
 1 0 0 30 118 159 0 106 143 146 0 +-.023 .014 .022 0 0 1 30 146 163 0 114 118 14
7 0 +-.0235 .014 -.0215 -1 0 0 16 114 161 0 ?98 148 106 146 0 0 1 30 147 166 0 1
48 146 149 0 +.023 .014 -.022 0 0 -1 16 148 164 0 ?109 150 114 147 0 0 1 30 149
 175 0 150 147 151 0 +.0235 .014 .0215 0 -1 0 16 150 173 0 ?89 152 148 149 0 0 1
 30 151 179 0 152 149 153 0 +.0235 5e-4 -.022 0 0 -1 16 152 177 0 ?86 154 150 15
1 0 0 1 30 153 183 0 154 151 155 0 +.0235 .0135 .022 0 0 1 16 154 181 0 ?156 157
 152 153 0 0 1 30 155 186 0 157 153 158 0 +.0235 .014 -.0215 0 1 0 16 157 184 0
 ?83 124 154 155 0 0 1 30 158 195 0 124 155 159 0 +-.0235 .0135 -.022 0 0 -1 16
 124 193 0 ?77 160 157 158 0 0 1 30 159 199 0 160 158 161 0 +-.0235 .014 .0215 0
 1 0 16 160 197 0 ?80 162 124 159 0 0 1 30 161 203 0 162 159 163 0 +-.0235 .014
 -.0215 0 -1 0 16 162 201 0 ?71 164 160 161 0 0 1 30 163 206 0 164 161 165 0 +-.
0235 5e-4 -.022 0 0 1 16 164 204 0 ?166 167 162 163 0 0 1 30 165 215 0 167 163 1
68 0 +0 0 -.0215 1 0 0 16 167 213 0 ?65 169 164 165 0 0 1 30 168 219 0 169 165 1
70 0 +.023 0 0 0 0 1 16 169 217 0 ?62 171 167 168 0 0 1 30 170 223 0 171 168 172
 0 +0 0 .0215 -1 0 0 16 171 221 0 ?59 173 169 170 0 0 1 30 172 226 0 173 170 174
 0 +-.023 0 0 0 0 -1 16 173 224 0 ?175 176 171 172 0 0 1 30 174 235 0 176 172 17
7 0 +-.0235 .0135 .022 -1 0 0 16 176 233 0 ?53 178 173 174 0 0 1 30 177 239 0 17
8 174 179 0 +.023 .014 .022 0 1 0 16 178 237 0 ?56 180 176 177 0 0 1 30 179 243
 0 180 177 181 0 +-.023 .014 .022 0 -1 0 16 180 241 0 ?47 182 178 179 0 0 1 30 1
81 246 0 182 179 183 0 +-.0235 .000500000000000014 .022 1 0 0 16 182 244 0 ?184
 185 180 181 0 0 1 30 183 255 0 185 181 186 0 +.0235 .0135 -.022 1 0 0 16 185 25
3 0 ?37 39 182 183 0 0 1 30 186 259 0 39 183 187 0 +.023 .014 -.022 0 -1 0 16 39
 257 0 ?34 25 185 186 0 0 1 30 187 263 0 25 186 26 0 +-.023 .014 -.022 0 1 0 16
 25 261 0 ?32 10 39 187 0 0 1 30 26 266 0 10 187 188 0 +-.0235 5e-4 -.022 -1 0 0
 30 188 445 0 189 26 190 0 -.023 .014 -.0215 .707106781186538 -.707106781186557
 195068522052526e-28 16 189 377 0 ?95 191 0 188 0 0 1 30 190 444 0 191 188 192 0
 -.0235 .0135 .0215 -.707106781186538 .707106781186557 -640987562127819e-31 16 1
91 375 0 ?92 193 189 190 0 0 1 30 192 443 0 193 190 194 0 -.02325 .0135 -.02175
 .707106781186538 1239037099348098e-31 .707106781186557 16 193 373 0 ?195 196 19
1 192 0 0 1 30 194 442 0 196 192 197 0 +.023 .014 -.0215 -683925587035466e-31 .7
07106781186557 .707106781186538 16 196 372 0 ?198 141 193 194 0 0 1 30 197 441 0
 141 194 199 0 +.023 .01375 .02175 -195180712667932e-28 -.707106781186557 .70710
6781186538 16 141 371 0 ?140 200 196 197 0 0 1 30 199 440 0 200 197 201 0 -.0235
 .0135 .0215 -.707106781186557 1239037099348098e-31 .707106781186538 16 200 370
 0 ?202 203 141 199 0 0 1 30 201 439 0 203 199 204 0 +.0235 5e-4 -.0215 -.707106
781186538 683925587035466e-31 -.707106781186557 16 203 368 0 ?205 137 200 201 0
 0 1 30 204 438 0 137 201 138 0 --.023 .0135 -.022 195180712667932e-28 -.7071067
81186557 -.707106781186538 16 137 365 0 ?206 132 203 204 0 0 1 30 138 437 0 132
 204 207 0 --.023 .01375 .02175 -195180712667932e-28 .707106781186557 -.70710678
1186538 30 207 436 0 136 138 208 0 +.023 .000500000000000014 .022 .7071067811865
57 -195180712667932e-28 -.707106781186538 16 136 359 0 ?209 210 132 207 0 0 1 30
 208 435 0 210 207 211 0 -.0235 5e-4 -.0215 .707106781186557 .707106781186538 11
9609907444047e-30 16 210 357 0 ?212 213 136 208 0 0 1 30 211 434 0 213 208 214 0
 -.023 25e-5 -.02175 -195180712667932e-28 -.707106781186538 .707106781186557 16
 213 356 0 ?215 216 210 211 0 0 1 30 214 433 0 216 211 217 0 --.023 .0135 -.022
 .707106781186557 1239037099348098e-31 -.707106781186538 16 216 355 0 ?218 129 2
13 214 0 0 1 30 217 432 0 129 214 130 0 +-.02325 .01375 -.0215 .707106781186538
 .707106781186557 640987562127819e-31 16 129 354 0 ?117 121 216 217 0 0 1 30 130
 431 0 121 217 219 0 +-.0235 .0135 .0215 -.707106781186538 -.707106781186557 640
987562127819e-31 30 219 430 0 128 130 220 0 --.0235 .0135 .0215 -.70710678118655
7 -1239037099348098e-31 -.707106781186538 16 128 352 0 ?127 221 121 219 0 0 1 30
 220 429 0 221 219 222 0 -.023 .000500000000000014 .022 1239037099348098e-31 .70
7106781186557 .707106781186538 16 221 351 0 ?223 224 128 220 0 0 1 30 222 428 0
 224 220 225 0 -.02325 25e-5 .0215 -.707106781186557 -.707106781186538 640987562
127819e-31 16 224 350 0 ?226 227 221 222 0 0 1 30 225 427 0 227 222 228 0 +-.023
 0 -.0215 1239037099348098e-31 .707106781186538 -.707106781186557 16 227 346 0 ?
229 230 224 225 0 0 1 30 228 426 0 230 225 231 0 +-.02325 5e-4 -.02175 -.7071067
81186557 683925587035466e-31 .707106781186538 16 230 343 0 ?30 232 227 228 0 0 1
 30 231 425 0 232 228 233 0 +-.0235 5e-4 .0215 .707106781186557 195180712667932e
-28 .707106781186538 16 232 338 0 ?234 235 230 231 0 0 1 30 233 424 0 235 231 21
 0 +-.023 .000250000000000007 .02175 1239037099348098e-31 -.707106781186557 -.70
7106781186538 16 235 335 0 ?236 145 232 233 0 0 1 30 21 423 0 145 233 7 0 --.023
 0 -.0215 .707106781186557 -.707106781186538 195068522052526e-28 16 145 333 0 ?2
37 20 235 21 0 0 1 17 237 0 238 33 239 69 240 145 0 30 +15 238 289 0 239 241 0 1
7 33 0 238 239 237 11 30 230 0 229 -17 239 0 238 237 33 66 229 227 0 240 -17 240
 0 242 243 244 66 237 145 0 175 -17 30 0 29 245 27 69 33 230 0 0 +15 29 299 0 30
 246 0 17 245 0 29 31 30 75 71 162 0 116 -17 31 0 29 27 245 41 218 216 0 247 -17
 71 0 248 166 77 69 245 162 0 244 +17 116 0 115 119 105 75 117 129 0 218 -17 117
 0 249 247 218 96 116 129 0 206 +17 218 0 249 117 247 75 31 216 0 0 +15 249 311
 0 218 250 0 17 247 0 249 218 117 41 206 137 0 251 -17 206 0 252 113 251 96 247
 137 0 0 +17 251 0 252 206 253 41 37 185 0 0 -15 252 319 0 206 254 0 17 253 0 25
2 251 113 35 198 196 0 195 -17 37 0 36 34 32 35 251 185 0 38 +15 36 250 0 34 255
 0 17 32 0 36 37 24 41 27 25 0 31 +17 38 0 256 257 205 35 34 39 0 253 -15 256 32
1 0 205 258 0 17 257 0 256 259 38 81 195 193 0 260 -17 205 0 256 38 259 28 261 2
03 0 0 +17 259 0 256 205 257 84 83 157 0 0 -17 261 0 262 212 215 84 205 203 0 25
9 -15 262 313 0 212 263 0 17 212 0 262 215 261 63 264 210 0 0 +17 215 0 262 261
 212 28 265 213 0 205 +17 265 0 266 68 40 63 215 213 0 212 -15 266 301 0 229 267
 0 17 68 0 266 229 265 66 65 167 0 239 -17 40 0 266 265 229 28 24 10 0 215 -17 2
29 0 266 40 68 11 239 227 0 24 +17 24 0 36 32 34 11 40 10 0 0 +17 65 0 268 62 17
5 63 68 167 0 269 +15 268 210 0 59 270 0 17 62 0 268 59 65 60 269 169 0 271 +17
 175 0 268 65 59 66 243 173 0 0 +17 269 0 272 264 273 63 62 169 0 265 -15 272 30
5 0 273 274 0 17 264 0 272 275 269 84 212 210 0 261 -17 273 0 272 269 275 60 226
 224 0 223 -17 275 0 272 273 264 87 86 152 0 226 -17 226 0 276 277 223 87 273 22
4 0 209 +17 223 0 276 226 277 60 278 221 0 0 +15 276 307 0 223 279 0 17 277 0 27
6 223 226 48 209 136 0 278 -17 278 0 280 281 271 48 223 221 0 184 -15 280 291 0
 236 282 0 17 281 0 280 236 278 45 184 182 0 0 -17 271 0 280 278 236 60 59 171 0
 273 -17 184 0 283 56 47 48 281 182 0 0 +15 283 230 0 47 284 0 17 56 0 283 53 18
4 54 50 178 0 135 +17 47 0 283 184 53 45 285 180 0 234 +17 53 0 283 47 56 51 135
 176 0 285 +17 285 0 286 125 234 51 47 180 0 127 -17 234 0 286 285 74 45 287 232
 0 288 +15 286 295 0 234 289 0 17 74 0 286 234 125 72 80 160 0 287 -17 287 0 290
 144 288 72 234 232 0 291 -17 288 0 290 287 144 45 236 235 0 281 -15 290 287 0 2
87 292 0 17 144 0 290 288 287 57 291 20 0 236 +17 236 0 280 271 281 57 288 235 0
 0 +17 291 0 242 244 243 72 144 20 0 166 -15 242 283 0 291 18 0 17 244 0 242 240
 291 69 166 164 0 237 -17 243 0 242 291 240 57 175 173 0 144 -17 166 0 248 80 71
 72 244 164 0 0 +15 248 190 0 71 293 0 17 80 0 248 77 166 78 74 160 0 119 +17 77
 0 248 71 80 75 119 124 0 245 +14 255 293 86 294 ?284 255 248 5 295 -0 0 284 255
 23 81 1 294 654 296 293 297 0 0 298 299 14 284 84 298 ?108 293 283 5 300 -0 0 1
08 293 23 14 255 88 301 ?293 16 36 5 302 -0 0 293 16 23 50 295 92 0 293 300 302
 0 +-.0235 .014 -.022 1 0 0 0 0 -1 13 23 34 0 0 0 0 0 0 9 16 14 16 90 303 ?255 0
 304 5 305 -0 0 255 0 23 81 1 303 657 296 16 306 0 301 307 308 15 304 170 0 86 1
6 0 50 305 94 0 16 302 309 0 +.0235 .014 -.022 -1 0 0 0 0 1 50 302 93 0 255 295
 305 0 +-.0235 .014 -.022 0 0 1 1 0 0 50 309 421 0 310 305 311 0 +.023 .014 0 .7
07106781186557 .707106781186538 0 0 0 1 14 310 326 307 ?0 312 313 5 309 +0 0 0 3
12 23 50 311 420 0 312 309 314 0 +.023 .014 -.0215 .577350269189642 .57735026918
961 -.577350269189626 -.707106781186538 0 -.707106781186557 14 312 324 315 ?310
 316 317 5 311 +0 0 310 316 23 50 314 419 0 316 311 318 0 +.0235 .0135 .0215 .57
7350269189626 .57735026918961 .577350269189642 .707106781186557 0 -.707106781186
538 14 316 322 319 ?312 258 320 5 314 +0 0 312 258 23 50 318 418 0 258 314 321 0
 -.023 .014 -.022 -.707106781186557 0 .707106781186538 0 -1 0 14 258 320 322 ?31
6 254 256 5 318 +0 0 316 254 23 50 321 417 0 254 318 323 0 +0 .014 -.0215 0 .707
106781186538 -.707106781186557 1 0 0 14 254 318 324 ?258 139 252 5 321 +0 0 258
 139 23 50 323 416 0 139 321 325 0 +0 .014 .0215 0 .707106781186538 .70710678118
6557 -1 0 0 14 139 316 326 ?254 327 134 5 323 +0 0 254 327 23 50 325 415 0 327 3
23 328 0 -.0235 .014 .0215 -.707106781186538 0 -.707106781186557 0 -1 0 14 327 3
14 329 ?139 263 330 5 325 +0 0 139 263 23 50 328 414 0 263 325 331 0 +.0235 5e-4
 -.0215 .577350269189626 -.577350269189642 -.57735026918961 .707106781186557 .70
7106781186538 0 14 263 312 332 ?327 250 262 5 328 +0 0 327 250 23 50 331 413 0 2
50 328 333 0 +-.023 .0135 -.022 -.577350269189626 .57735026918961 -.577350269189
642 -.707106781186557 0 .707106781186538 14 250 310 334 ?263 133 249 5 331 +0 0
 263 133 23 50 333 412 0 133 331 335 0 +-.0235 .0135 .0215 -.577350269189626 .57
735026918961 .577350269189642 .707106781186557 0 .707106781186538 14 133 308 336
 ?250 279 126 5 333 +0 0 250 279 23 50 335 411 0 279 333 337 0 +.023 .0005000000
00000014 .022 .57735026918961 -.577350269189626 .577350269189642 0 -.70710678118
6557 -.707106781186538 14 279 306 338 ?133 274 276 5 335 +0 0 133 274 23 50 337
 410 0 274 335 339 0 -.0235 5e-4 -.022 -.707106781186538 .707106781186557 0 0 0
 -1 14 274 304 340 ?279 267 272 5 337 +0 0 279 267 23 50 339 409 0 267 337 341 0
 --.0235 5e-4 -.022 0 .707106781186557 .707106781186538 -1 0 0 14 267 300 342 ?2
74 246 266 5 339 +0 0 274 246 23 50 341 408 0 246 339 343 0 --.0235 .014 -.0215
 .707106781186538 0 .707106781186557 0 -1 0 14 246 298 344 ?267 123 29 5 341 +0
 0 267 123 23 50 343 407 0 123 341 345 0 +-.023 .014 0 -.707106781186557 .707106
781186538 0 0 0 -1 14 123 296 346 ?246 289 115 5 343 +0 0 246 289 23 50 345 406
 0 289 343 347 0 --.023 .014 .022 .707106781186538 0 -.707106781186557 0 -1 0 14
 289 294 348 ?123 282 286 5 345 +0 0 123 282 23 50 347 405 0 282 345 349 0 --.02
35 .000500000000000014 .022 0 .707106781186538 -.707106781186557 1 0 0 14 282 29
0 350 ?289 241 280 5 347 +0 0 289 241 23 50 349 404 0 241 347 19 0 +-.023 0 -.02
15 -.57735026918961 -.577350269189642 -.577350269189626 0 .707106781186538 -.707
106781186557 14 241 288 351 ?282 292 238 5 349 +0 0 282 292 23 50 19 403 0 292 3
49 6 0 +-.0235 5e-4 .0215 -.57735026918961 -.577350269189626 .577350269189642 0
 -.707106781186557 -.707106781186538 14 292 286 352 ?241 18 290 5 19 +0 0 241 18
 23 81 1 352 676 296 292 353 0 351 354 355 14 18 282 354 ?292 270 242 5 6 +0 0 2
92 270 23 81 1 354 677 296 18 356 0 352 357 358 14 270 48 357 ?18 108 268 5 359
 -0 0 18 108 23 81 1 357 678 296 270 360 0 354 361 362 14 108 1 361 ?270 284 104
 5 363 +0 0 270 284 23 50 359 70 0 270 363 300 0 +0 0 0 0 1 0 0 0 1 50 363 3 0 1
08 0 359 0 +0 .014 0 0 1 0 0 0 1 50 300 91 0 284 359 295 0 +-.0235 .014 .022 0 0
 -1 -1 0 0 81 1 361 679 296 108 364 0 357 0 365 80 255 1 296 366 367 9000 1 1 1
 1 1 1 1 1 0 FFFFTFTFFFFFFF1 81 1 364 578 368 108 0 361 369 360 370 82 255 1 365
 -1297809302 80 1 368 0 371 8001 0 0 0 0 3 5 0 0 0 FFFFTFTFFFFFFF2 81 1 369 577
 368 284 0 298 297 364 372 81 1 360 579 368 270 0 357 364 356 373 83 255 3 370 .
752941176470588 .752941176470588 .752941176470588 81 1 356 580 368 18 0 354 360
 353 374 83 3 373 .752941176470588 .752941176470588 .752941176470588 81 1 353 58
1 368 292 0 352 356 375 376 83 3 374 .792156862745098 .819607843137255 .93333333
3333333 81 1 375 582 368 241 0 351 353 377 378 83 3 376 .792156862745098 .819607
843137255 .933333333333333 81 1 351 675 296 241 375 0 350 352 379 81 1 377 583 3
68 282 0 350 375 380 381 83 3 378 .792156862745098 .819607843137255 .93333333333
3333 81 1 350 674 296 282 377 0 348 351 382 81 1 380 584 368 289 0 348 377 383 3
84 83 3 381 .792156862745098 .819607843137255 .933333333333333 81 1 348 673 296
 289 380 0 346 350 385 81 1 383 585 368 123 0 346 380 386 387 83 3 384 .79215686
2745098 .819607843137255 .933333333333333 81 1 346 672 296 123 383 0 344 348 388
 81 1 386 586 368 246 0 344 383 389 390 83 3 387 .792156862745098 .8196078431372
55 .933333333333333 81 1 344 671 296 246 386 0 342 346 391 81 1 389 587 368 267
 0 342 386 392 393 83 3 390 .792156862745098 .819607843137255 .933333333333333 8
1 1 342 670 296 267 389 0 340 344 394 81 1 392 588 368 274 0 340 389 395 396 83
 3 393 .792156862745098 .819607843137255 .933333333333333 81 1 340 669 296 274 3
92 0 338 342 397 81 1 395 589 368 279 0 338 392 398 399 83 3 396 .79215686274509
8 .819607843137255 .933333333333333 81 1 338 668 296 279 395 0 336 340 400 81 1
 398 590 368 133 0 336 395 401 402 83 3 399 .792156862745098 .819607843137255 .9
33333333333333 81 1 336 667 296 133 398 0 334 338 403 81 1 401 591 368 250 0 334
 398 404 405 83 3 402 .792156862745098 .819607843137255 .933333333333333 81 1 33
4 666 296 250 401 0 332 336 406 81 1 404 592 368 263 0 332 401 407 408 83 3 405
 .792156862745098 .819607843137255 .933333333333333 81 1 332 665 296 263 404 0 3
29 334 409 81 1 407 593 368 327 0 329 404 410 411 83 3 408 .792156862745098 .819
607843137255 .933333333333333 81 1 329 664 296 327 407 0 326 332 412 81 1 410 59
4 368 139 0 326 407 413 414 83 3 411 .792156862745098 .819607843137255 .93333333
3333333 81 1 326 663 296 139 410 0 324 329 415 81 1 413 595 368 254 0 324 410 41
6 417 83 3 414 .792156862745098 .819607843137255 .933333333333333 81 1 324 662 2
96 254 413 0 322 326 418 81 1 416 596 368 258 0 322 413 419 420 83 3 417 .792156
862745098 .819607843137255 .933333333333333 81 1 322 661 296 258 416 0 319 324 4
21 81 1 419 597 368 316 0 319 416 422 423 83 3 420 .792156862745098 .81960784313
7255 .933333333333333 81 1 319 660 296 316 419 0 315 322 424 81 1 422 598 368 31
2 0 315 419 425 426 83 3 423 .792156862745098 .819607843137255 .933333333333333
 81 1 315 659 296 312 422 0 307 319 427 81 1 425 599 368 310 0 307 422 0 428 83
 3 426 .792156862745098 .819607843137255 .933333333333333 81 1 307 658 296 310 4
25 0 303 315 429 83 3 428 .792156862745098 .819607843137255 .933333333333333 82
 1 429 1101332586 82 1 427 1102905450 82 1 424 1103757418 82 1 421 1104609386 82
 1 418 1105789034 82 1 415 1106903146 82 1 412 1108017258 82 1 409 1109131370 82
 1 406 1109917802 82 1 403 1110769770 82 1 400 1111621738 82 1 397 1112473706 82
 1 394 1113260138 82 1 391 1114374250 82 1 388 1115488362 82 1 385 1115881578 82
 1 382 1117323370 82 1 379 1118437482 81 1 298 655 296 284 369 0 294 301 430 81
 1 297 576 368 293 0 294 431 369 432 83 3 372 .752941176470588 .752941176470588
 .752941176470588 81 1 431 575 368 255 0 301 306 297 433 83 3 432 .7529411764705
88 .752941176470588 .752941176470588 81 1 301 656 296 255 431 0 298 303 434 81 1
 306 574 368 16 0 303 0 431 435 83 3 433 .752941176470588 .752941176470588 .7529
41176470588 83 3 435 .752941176470588 .752941176470588 .752941176470588 82 1 434
 -1290731414 82 1 430 -1291255702 79 255 15 371 SDL/TYSA_COLOUR79 14 367 SWEntUn
changed82 1 362 -1292173206 82 1 358 1119617130 82 1 355 1118830698 15 330 315 0
 209 327 0 17 209 0 330 436 50 87 277 136 0 0 +17 436 0 330 437 209 90 89 150 0
 156 -17 50 0 330 209 437 48 56 178 0 277 -17 437 0 330 50 436 54 202 200 0 140
 -17 202 0 320 142 140 90 437 200 0 436 +17 140 0 320 202 142 54 112 141 0 0 +15
 320 323 0 140 316 0 17 142 0 320 140 202 99 92 191 0 438 -17 92 0 313 260 438 9
0 142 191 0 202 +17 438 0 313 92 95 99 109 148 0 0 -15 313 327 0 92 310 0 17 95
 0 313 438 260 93 439 189 0 198 +17 109 0 104 98 101 93 438 148 0 0 +17 260 0 31
3 95 92 81 156 154 0 439 -17 439 0 317 195 198 81 95 189 0 0 -17 198 0 317 439 1
95 93 253 196 0 113 +15 317 325 0 195 312 0 17 195 0 317 198 439 35 257 193 0 0
 +17 113 0 252 253 206 93 98 114 0 109 -17 156 0 304 89 83 90 260 154 0 0 +17 89
 0 304 86 156 87 436 150 0 275 +17 83 0 304 156 86 81 259 157 0 257 +17 86 0 304
 83 89 84 275 152 0 264 +82 1 308 -1290469270 82 1 299 -1290993558 17 125 0 286
 74 285 78 127 128 0 120 -17 135 0 134 112 131 54 53 176 0 437 -17 59 0 268 175
 62 57 271 171 0 243 +19 17 100 0 1 0 9 5 S0 74 4 CI16 index_map_offset0 0 1 dCC
Z20 15 8 0 0 440 441 361 442 443 13 425 2 0 0 0 0 0 0 0 0 0 0 0 0 81 2 440 124 4
44 1 0 441 0 0 0 445 81 2 441 128 446 1 440 442 0 0 0 447 81 1 442 542 448 1 441
 443 0 0 449 81 2 443 569 450 1 442 13 0 0 0 451 81 2 13 572 452 1 443 2 0 0 0 0
 80 2 452 453 454 9000 0 0 0 0 3 5 0 0 0 FFTFFFFFFFFFFF9 1 79 16 454 BODY_RECIPE
_200180 2 450 455 456 9000 0 0 0 0 3 5 0 0 0 FFTFFFFFFFFFFF9 1 82 1 451 1 79 24
 456 BODY_IN_LIGHTWEIGHT_PERM80 1 448 457 458 9000 1 1 1 1 1 1 1 1 0 FFTFFFFFFFF
FFF1 82 1 449 1159843 79 10 458 BODY_MATCH80 2 446 459 460 9000 0 0 0 0 3 5 0 0
 0 FFTFFFFFFFFFFF9 1 82 1 447 37 79 30 460 LAST_BODY_MODIFYING_FEATURE_ID80 2 44
4 461 462 9000 0 0 0 0 3 5 0 0 0 FFTFFFFFFFFFFF9 1 82 1 445 105 79 19 462 ENT_TI
ME_STAMP_200180 2 12 463 464 9000 0 0 0 0 3 5 0 0 0 FFTFFFFFFFFFFF9 1 82 1 14 10
1 79 12 464 ATOM_ID_20011 0 
