**ABCDEFGHIJKLMNOPQRSTUVWXYZabcdefghijklmnopqrstuvwxyz**************************
**PARASOLID !"#$%&'()*+,-./:;<=>?@[\]^_`{|}~0123456789**************************
**PART1;
MC=AMD64;
MC_MODEL=Intel64 Family 6 Model 158 Stepping 10, GenuineIntel;
MC_ID=unknown;
OS=Windows_NT;
OS_RELEASE=unknown;
FRU=Parasolid Version 31.0, build 290,  9- 1-2019;
APPL=SOLIDWORKS 2019-2019304;
SITE=;
USER=unknown;
FORMAT=text;
GUISE=transmit;
KEY=Laser;
FILE=Laser.x_t;
DATE=Sat May 16 15:49:40 2020;
**PART2;
SCH=SCH_3100290_31001;
USFLD_SIZE=0;
**PART3;
**END_OF_HEADER*****************************************************************
T51 : TRANSMIT FILE created by modeller version 310029023 SCH_3100290_31001_1300
6215 0 12 34 CCCCCCI4 mesh1006 0 I8 polyline1008 0 CCCCCCCDI5 owner1040 0 CCCCCC
I13 boundary_mesh1006 0 I17 boundary_polyline1008 0 CCCA16 index_map_offset0 0 1
 dA9 index_map82 0 A17 node_id_index_map82 0 A20 schema_embedding_map82 0 A5 chi
ld12 0 A14 lowest_node_id0 0 1 dA16 mesh_offset_data206 0 Z1 238 2 3 0 0 0 0 0 0
 1e3 1e-8 0 4 0 1 0 1 1 5 6 7 0 0 0 8 9 0 0 0 0 0 0 0 0 81 255 2 2 229 10 1 11 0
 0 0 0 12 70 11 CI9 list_type0 0 1 uI10 notransmit0 0 1 lCCCDCCDI12 finger_index
0 0 1 dI12 finger_block1012 0 CZ3 0 4 T1 0 0 8 20 1 13 13 13 255 5 31 0 1 0 14 0
 0 15 0 54 255 6 107 0 16 17 0 0 +0 .069 0 0 1 0 .0485 .003 0 0 1 31 255 7 77 0
 9 18 0 0 +0 .072 0 0 1 0 0 0 1 .0485 19 8 CCCCCCCA5 owner12 0 Z8 9 0 1 15 0 19
 V0 16 255 9 74 0 ?20 0 21 7 0 0 1 17 255 20 0 22 20 20 0 23 9 0 0 +16 21 68 0 ?
24 9 25 18 0 0 1 17 24 0 26 24 24 0 27 21 0 0 +16 25 62 0 ?28 21 29 30 0 0 1 31
 18 71 0 21 30 7 0 -0 0 0 0 1 0 0 0 1 .0485 31 30 65 0 25 31 18 0 +0 .003 0 0 1
 0 0 0 1 .0515 31 31 59 0 29 32 30 0 -0 .069 0 0 1 0 0 0 1 .0515 16 29 56 0 ?33
 25 34 31 0 0 1 31 32 160 0 34 35 31 0 +0 .054 0 0 -1 0 0 0 -1 .0515 16 34 133 0
 ?36 29 37 32 0 0 1 31 35 161 0 37 38 32 0 +0 .054 0 0 -1 0 0 0 -1 .051 16 37 13
4 0 ?39 34 40 35 0 0 1 31 38 162 0 40 41 35 0 +0 .018 0 0 -1 0 0 0 -1 .051 16 40
 135 0 ?42 37 43 38 0 0 1 31 41 163 0 43 0 38 0 +0 .018 0 0 -1 0 0 0 -1 .0515 16
 43 136 0 ?44 40 0 41 0 0 1 17 44 0 45 44 44 0 46 43 0 0 +15 255 45 120 0 44 47
 48 17 46 0 49 46 46 0 44 43 0 0 -15 49 152 0 46 50 51 14 255 50 150 52 ?53 54 4
9 5 55 -0 0 53 54 19 15 51 153 0 42 50 0 17 42 0 51 42 42 0 56 40 0 0 +17 56 0 5
7 56 56 0 42 40 0 0 -15 57 148 0 56 54 58 14 54 146 59 ?50 60 57 5 61 -0 0 50 60
 19 15 58 149 0 39 54 0 17 39 0 58 39 39 0 62 37 0 0 +17 62 0 63 62 62 0 39 37 0
 0 -15 63 144 0 62 60 64 14 60 142 65 ?54 16 63 5 66 -0 0 54 16 19 15 64 145 0 3
6 60 0 17 36 0 64 36 36 0 67 34 0 0 +17 67 0 68 67 67 0 36 34 0 0 -15 68 126 0 6
7 14 69 14 14 123 70 ?71 0 68 5 72 -47 47 71 0 19 15 69 57 0 33 14 0 17 33 0 69
 33 33 0 73 29 0 0 +17 73 0 74 73 73 0 33 29 0 0 -15 74 101 0 73 16 75 14 16 100
 76 ?60 71 74 5 6 +0 0 60 71 19 15 75 102 0 23 16 0 17 23 0 75 23 23 0 20 9 0 0
 -81 1 76 234 77 16 78 0 70 79 80 14 71 1 79 ?16 14 22 5 81 +0 0 16 14 19 13 19
 10 0 0 0 0 0 0 8 14 81 1 79 235 77 71 82 0 76 83 84 15 22 75 0 20 71 0 50 255 8
1 3 0 71 66 85 0 +0 .072 0 0 1 0 0 0 1 50 66 157 0 60 61 81 0 +.0515 .054 0 0 1
 0 0 0 1 50 85 24 0 53 81 72 0 +0 0 0 0 1 0 0 0 1 14 53 18 83 ?86 50 26 5 85 -0
 0 86 50 19 51 255 72 30 0 47 85 17 0 -0 .072 0 0 -1 0 .0515 0 0 -1 14 47 27 87
 ?0 86 45 5 72 -14 14 0 86 19 54 17 94 0 86 72 6 0 +0 .003 0 0 1 0 .0485 .003 0
 0 1 14 86 87 88 ?47 53 89 5 17 +0 0 47 53 19 81 1 88 238 77 86 90 0 87 0 91 15
 89 88 0 27 86 92 17 27 0 89 27 27 0 24 21 0 0 -15 92 89 0 93 86 0 17 93 0 92 93
 93 0 28 25 0 0 -17 28 0 48 28 28 0 93 25 0 0 +15 48 63 0 28 47 0 80 255 1 77 94
 95 9000 1 1 1 1 1 1 1 1 0 FFFFTFTFFFFFFF1 81 1 90 208 96 86 0 88 97 98 99 81 1
 87 237 77 47 98 0 83 88 100 82 255 1 91 -540409750 81 1 98 209 96 47 0 87 90 0
 101 81 1 83 236 77 53 97 0 79 87 102 82 1 100 -941817746 81 1 97 207 96 53 0 83
 103 90 104 82 1 102 -942079894 80 1 96 0 105 8001 0 0 0 0 3 5 0 0 0 FFFFTFTFFFF
FFF2 81 1 103 206 96 50 0 52 106 97 107 83 255 3 104 .752941176470588 .752941176
470588 .752941176470588 81 1 52 230 77 50 103 0 0 59 108 81 1 106 205 96 54 0 59
 109 103 110 83 3 107 .792156862745098 .819607843137255 .933333333333333 81 1 59
 231 77 54 106 0 52 65 111 81 1 109 204 96 60 0 65 78 106 112 83 3 110 0 0 .7529
41176470588 81 1 65 232 77 60 109 0 59 70 113 81 1 78 203 96 16 0 76 82 109 114
 83 3 112 .792156862745098 .819607843137255 .933333333333333 81 1 82 202 96 71 0
 79 115 78 116 83 3 114 .752941176470588 .752941176470588 .752941176470588 81 1
 115 201 96 14 0 70 0 82 117 83 3 116 .752941176470588 .752941176470588 .7529411
76470588 81 1 70 233 77 14 115 0 65 76 118 83 3 117 .752941176470588 .7529411764
70588 .752941176470588 82 1 118 -1947336594 82 1 113 -1951924114 82 1 111 -19525
13938 82 1 108 -1953103762 79 255 15 105 SDL/TYSA_COLOUR83 3 101 .75294117647058
8 .752941176470588 .752941176470588 83 3 99 .752941176470588 .752941176470588 .7
52941176470588 79 14 95 SWEntUnchanged15 26 69 0 24 53 0 51 61 158 0 54 55 66 0
 -0 0 0 0 -1 0 .051 0 0 -1 50 55 159 0 50 0 61 0 +.051 .018 0 0 -1 0 0 0 -1 82 1
 84 -943783830 82 1 80 -539164566 19 15 32 0 1 0 8 5 S0 74 4 CI16 index_map_offs
et0 0 1 dCCZ20 13 8 0 0 119 120 88 121 122 11 98 2 0 0 0 0 0 0 0 0 0 0 0 0 81 2
 119 44 123 1 0 120 0 0 0 124 81 2 120 48 125 1 119 121 0 0 0 126 81 1 121 179 1
27 1 120 122 0 0 128 81 2 122 196 129 1 121 11 0 0 0 130 81 2 11 199 131 1 122 2
 0 0 0 0 80 2 131 132 133 9000 0 0 0 0 3 5 0 0 0 FFTFFFFFFFFFFF9 1 79 16 133 BOD
Y_RECIPE_200180 2 129 134 135 9000 0 0 0 0 3 5 0 0 0 FFTFFFFFFFFFFF9 1 82 1 130
 1 79 24 135 BODY_IN_LIGHTWEIGHT_PERM80 1 127 136 137 9000 1 1 1 1 1 1 1 1 0 FFT
FFFFFFFFFFF1 82 1 128 772029 79 10 137 BODY_MATCH80 2 125 138 139 9000 0 0 0 0 3
 5 0 0 0 FFTFFFFFFFFFFF9 1 82 1 126 44 79 30 139 LAST_BODY_MODIFYING_FEATURE_ID8
0 2 123 140 141 9000 0 0 0 0 3 5 0 0 0 FFTFFFFFFFFFFF9 1 82 1 124 107 79 19 141
 ENT_TIME_STAMP_200180 2 10 142 143 9000 0 0 0 0 3 5 0 0 0 FFTFFFFFFFFFFF9 1 82
 1 12 102 79 12 143 ATOM_ID_20011 0 
