**ABCDEFGHIJKLMNOPQRSTUVWXYZabcdefghijklmnopqrstuvwxyz**************************
**PARASOLID !"#$%&'()*+,-./:;<=>?@[\]^_`{|}~0123456789**************************
**PART1;
MC=AMD64;
MC_MODEL=Intel64 Family 6 Model 158 Stepping 10, GenuineIntel;
MC_ID=unknown;
OS=Windows_NT;
OS_RELEASE=unknown;
FRU=Parasolid Version 31.0, build 290,  9- 1-2019;
APPL=SOLIDWORKS 2019-2019304;
SITE=;
USER=unknown;
FORMAT=text;
GUISE=transmit;
KEY=Rod;
FILE=Rod.x_t;
DATE=Sat May 16 15:50:57 2020;
**PART2;
SCH=SCH_3100290_31001;
USFLD_SIZE=0;
**PART3;
**END_OF_HEADER*****************************************************************
T51 : TRANSMIT FILE created by modeller version 310029023 SCH_3100290_31001_1300
6215 0 12 34 CCCCCCI4 mesh1006 0 I8 polyline1008 0 CCCCCCCDI5 owner1040 0 CCCCCC
I13 boundary_mesh1006 0 I17 boundary_polyline1008 0 CCCA16 index_map_offset0 0 1
 dA9 index_map82 0 A17 node_id_index_map82 0 A20 schema_embedding_map82 0 A5 chi
ld12 0 A14 lowest_node_id0 0 1 dA16 mesh_offset_data206 0 Z1 141 2 3 0 0 0 0 0 0
 1e3 1e-8 0 4 0 1 0 1 1 5 6 7 0 0 0 8 9 0 0 0 0 0 0 0 0 81 255 2 2 138 10 1 11 0
 0 0 0 12 70 11 CI9 list_type0 0 1 uI10 notransmit0 0 1 lCCCDCCDI12 finger_index
0 0 1 dI12 finger_block1012 0 CZ3 0 4 T1 0 0 9 20 1 13 13 13 255 5 31 0 1 0 14 0
 0 15 0 51 255 6 30 0 14 16 0 0 --.208 -.8 -.027 0 1 0 .045 0 0 1 31 255 7 25 0
 9 17 0 0 +-.208 0 -.027 0 -1 0 0 0 -1 .045 19 8 CCCCCCCA5 owner12 0 Z8 9 0 1 15
 0 18 V0 16 255 9 20 0 ?19 0 20 7 0 0 1 17 255 19 0 21 19 19 0 22 9 0 0 +16 20 7
0 0 ?23 9 0 17 0 0 1 17 23 0 24 23 23 0 25 20 0 0 +32 255 17 92 0 20 0 7 0 +-.20
8 -.794474694759369 -.027 0 -.992546151641322 .1218693434051478 0 .1218693434051
478 .992546151641322 .0453379421456481 .045 15 255 24 74 0 23 26 0 17 25 0 27 25
 25 0 23 20 0 0 -15 27 60 0 25 14 0 14 255 14 61 28 ?29 0 21 5 6 -0 0 29 0 18 81
 1 28 139 30 14 31 0 0 32 33 14 29 18 32 ?26 14 34 5 16 -0 0 26 14 18 15 21 28 0
 19 14 27 13 18 10 0 0 0 0 0 0 8 14 81 1 32 140 30 29 35 0 28 36 37 14 26 72 36
 ?0 29 24 5 38 +0 0 0 29 18 15 34 19 0 22 29 0 50 255 16 24 0 29 38 6 0 +-.208 0
 -.027 0 -1 0 0 0 -1 50 38 90 0 26 0 16 0 +0 -.77940910226881 .0956994043858032
 0 -.992546151641322 .1218693434051478 0 -.1218693434051478 -.992546151641322 17
 22 0 34 22 22 0 19 9 0 0 -81 1 36 141 30 26 39 0 32 0 40 80 255 1 30 41 42 9000
 1 1 1 1 1 1 1 1 0 FFFFTFTFFFFFFF1 81 1 39 129 43 26 0 36 35 0 44 82 255 1 40 -1
124398747 80 1 43 0 45 8001 0 0 0 0 3 5 0 0 0 FFFFTFTFFFFFFF2 81 1 35 128 43 29
 0 32 31 39 46 83 255 3 44 1 1 1 81 1 31 127 43 14 0 28 0 35 47 83 3 46 1 1 1 83
 3 47 1 1 1 79 255 15 45 SDL/TYSA_COLOUR79 14 42 SWEntUnchanged82 1 37 130803540
0 82 1 33 -1124005531 19 15 32 0 1 0 8 5 S0 74 4 CI16 index_map_offset0 0 1 dCCZ
20 13 9 0 0 48 49 36 50 51 52 39 11 2 0 0 0 0 0 0 0 0 0 0 0 81 2 48 47 53 1 0 49
 0 0 0 54 81 2 49 50 55 1 48 50 0 0 0 56 81 1 50 115 57 1 49 51 0 0 58 81 2 51 1
21 59 1 50 52 0 0 0 60 81 2 52 125 61 1 51 11 0 0 0 0 81 2 11 137 62 1 52 2 0 0
 63 0 80 2 62 64 65 8004 0 0 0 0 3 5 0 0 0 FFTFFFFFFFFFFF2 3 83 1 63 1e3 79 16 6
5 SDL/TYSA_DENSITY80 2 61 66 67 9000 0 0 0 0 3 5 0 0 0 FFTFFFFFFFFFFF9 1 79 16 6
7 BODY_RECIPE_200180 2 59 68 69 9000 0 0 0 0 3 5 0 0 0 FFTFFFFFFFFFFF9 1 82 1 60
 1 79 24 69 BODY_IN_LIGHTWEIGHT_PERM80 1 57 70 71 9000 1 1 1 1 1 1 1 1 0 FFTFFFF
FFFFFFF1 82 1 58 961658 79 10 71 BODY_MATCH80 2 55 72 73 9000 0 0 0 0 3 5 0 0 0
 FFTFFFFFFFFFFF9 1 82 1 56 258 79 30 73 LAST_BODY_MODIFYING_FEATURE_ID80 2 53 74
 75 9000 0 0 0 0 3 5 0 0 0 FFTFFFFFFFFFFF9 1 82 1 54 4294 79 19 75 ENT_TIME_STAM
P_200180 2 10 76 77 9000 0 0 0 0 3 5 0 0 0 FFTFFFFFFFFFFF9 1 82 1 12 239 79 12 7
7 ATOM_ID_20011 0 
